<?xml version="1.0" encoding="UTF-8" standalone="no"?>
<!-- Created with Inkscape (http://www.inkscape.org/) -->

<svg
   xmlns:svg="http://www.w3.org/2000/svg"
   xmlns="http://www.w3.org/2000/svg"
   version="1.1"
   width="1045"
   height="212.5"
   id="svg2"
   xml:space="preserve"><defs
     id="defs6"><clipPath
       id="clipPath20"><path
         d="M 0,0 836,0 836,170 0,170 0,0 z"
         id="path22" /></clipPath></defs><g
     transform="matrix(1.25,0,0,-1.25,0,212.5)"
     id="g12"><g
       id="g14" /><g
       id="g16"><g
         clip-path="url(#clipPath20)"
         id="g18"><path
           d="M 0,170 836,170 836,0 0,0 0,170 z"
           id="path24"
           style="fill:#ffffff;fill-opacity:0;fill-rule:nonzero;stroke:none" /><path
           d="m 379.354,97.60905 c -3.7343,0 -6.9825,-0.70019 -9.7443,-2.10058 -2.7619,-1.40039 -5.057,-3.28703 -6.8853,-5.65991 -1.8283,-2.37288 -3.2286,-5.17366 -4.2011,-8.40235 -0.9725,-3.22868 -1.5366,-6.67131 -1.6922,-10.32788 l 43.8789,0 c 0.2334,8.24675 -1.4198,14.72356 -4.9597,19.43042 -3.5399,4.70687 -9.0053,7.0603 -16.3963,7.0603 z m 0.7002,20.77245 c 8.7136,0 16.1629,-1.2837 22.348,-3.8511 6.185,-2.5673 11.2614,-6.1267 15.2292,-10.6779 3.9678,-4.55131 6.8853,-9.93893 8.7525,-16.16288 1.8671,-6.22395 2.8007,-12.99251 2.8007,-20.30566 l 0,-4.66797 c 0,-3.57878 -0.7974,-6.22396 -2.3923,-7.93555 -1.5949,-1.71158 -3.7927,-2.56738 -6.5935,-2.56738 l -63.3677,0 c 0,-4.43457 0.5252,-8.46069 1.5755,-12.07837 1.0502,-3.61768 2.7229,-6.69075 5.018,-9.21924 2.2951,-2.52849 5.2515,-4.45402 8.8691,-5.77661 3.6177,-1.32259 7.9551,-1.98389 13.012,-1.98389 5.1348,0 9.6472,0.36955 13.5371,1.10865 3.89,0.73909 7.2548,1.55598 10.0945,2.45068 2.8397,0.89469 5.1931,1.71159 7.0603,2.45068 1.8672,0.73909 3.3843,1.10865 4.5513,1.10865 0.7002,0 1.2837,-0.13616 1.7505,-0.40845 0.4668,-0.2723 0.8558,-0.75855 1.167,-1.45874 0.3112,-0.7002 0.5251,-1.69214 0.6418,-2.97583 0.1167,-1.28369 0.175,-2.89803 0.175,-4.84302 0,-1.71159 -0.0388,-3.17033 -0.1167,-4.37622 -0.0777,-1.20589 -0.1945,-2.23673 -0.35,-3.09253 -0.1556,-0.85579 -0.389,-1.57544 -0.7002,-2.15893 -0.3112,-0.5835 -0.7197,-1.147548 -1.2254,-1.692144 C 421.3852,8.723149 420.0043,7.984054 417.7481,7.05046 415.4919,6.116867 412.6133,5.202723 409.1124,4.308029 405.6114,3.413334 401.6047,2.63534 397.0923,1.974045 392.58,1.31275 387.7564,0.9821005 382.6216,0.9821005 c -9.2581,0 -17.3687,1.1669935 -24.3317,3.5009765 -6.9631,2.333986 -12.7786,5.873863 -17.4466,10.619633 -4.6679,4.74577 -8.1495,10.73633 -10.4446,17.97168 -2.295,7.23535 -3.4426,15.71549 -3.4426,25.44043 0,9.25813 1.2059,17.60212 3.6177,25.03198 2.4118,7.42985 5.9127,13.73161 10.5029,18.9053 4.5902,5.1736 10.1723,9.122 16.7464,11.8449 6.574,2.723 13.9844,4.0845 22.2311,4.0845 z m 308.4126,12.6035 0,-51.23093 13.7706,0 c 4.9013,0 9.0053,0.6613 12.3117,1.98389 3.3065,1.32259 6.01,3.17033 8.1106,5.54321 2.1006,2.37288 3.6955,5.21257 4.7847,8.51905 1.0892,3.30647 1.6338,6.90468 1.6338,10.79468 0,5.2904 -0.9336,9.6471 -2.8008,13.0703 -1.8672,3.4232 -4.1623,5.9517 -6.8853,7.5855 -2.7229,1.6337 -5.5821,2.6646 -8.5774,3.0925 -2.9953,0.4279 -6.0878,0.6418 -9.2775,0.6418 l -13.0704,0 z m -452,0.2334 0,-42.82858 15.6377,0 c 4.3568,0 8.169,0.52514 11.4366,1.57544 3.2675,1.05029 5.9905,2.52848 8.1689,4.43457 2.1784,1.90608 3.8122,4.18171 4.9014,6.82687 1.0892,2.6452 1.6338,5.6016 1.6338,8.8692 0,4.9791 -1.1281,9.1803 -3.3843,12.6035 -2.2562,3.4232 -5.9517,5.8349 -11.0864,7.2353 -1.556,0.389 -3.326,0.7002 -5.3098,0.9336 -1.9839,0.2334 -4.7264,0.3501 -8.2273,0.3501 l -13.7706,0 z m 431.6944,23.4566 35.5932,0 c 3.5788,0 6.9825,-0.1362 10.2112,-0.4085 3.2287,-0.2723 7.0992,-0.8558 11.6116,-1.7505 4.5124,-0.8946 9.0831,-2.5479 13.7122,-4.9597 4.629,-2.4118 8.5773,-5.4654 11.8449,-9.1609 3.2676,-3.6954 5.7572,-8.0133 7.4688,-12.9536 1.7116,-4.9402 2.5674,-10.4835 2.5674,-16.6296 0,-8.4802 -1.3226,-15.98781 -3.9678,-22.52297 -2.6452,-6.53516 -6.4963,-12.03947 -11.5532,-16.51294 -5.057,-4.47347 -11.2615,-7.8772 -18.6136,-10.21118 -7.352,-2.33399 -16.0072,-3.50098 -25.9655,-3.50098 l -12.6036,0 0,-48.196774 c 0,-0.777994 -0.2528,-1.47819 -0.7585,-2.100586 -0.5057,-0.622396 -1.342,-1.128094 -2.509,-1.51709 -1.167,-0.388998 -2.723,-0.700196 -4.668,-0.933593 -1.945,-0.2334 -4.4346,-0.3501 -7.4688,-0.3501 -2.9563,0 -5.4265,0.1167 -7.4104,0.3501 -1.9838,0.233397 -3.5593,0.544595 -4.7263,0.933593 -1.167,0.388996 -1.9839,0.894694 -2.4507,1.51709 -0.4668,0.622396 -0.7002,1.322592 -0.7002,2.100586 l 0,135.837844 c 0,3.6566 0.9531,6.3991 2.8592,8.2273 1.9061,1.8283 4.4151,2.7425 7.5271,2.7425 z m -204.833,0 20.0722,0 c 3.5788,0 6.6519,-0.2918 9.2193,-0.8753 2.5674,-0.5835 4.7846,-1.556 6.6518,-2.9175 1.8672,-1.3614 3.4232,-3.1508 4.668,-5.3681 1.2448,-2.2173 2.334,-4.9597 3.2676,-8.2273 l 32.6758,-89.97511 0.4668,0 33.8427,89.74171 c 1.0114,3.2676 2.1201,6.0294 3.326,8.2856 1.2059,2.2562 2.6062,4.0845 4.2011,5.4849 1.5949,1.4004 3.4816,2.3923 5.6599,2.9758 2.1784,0.5835 4.7069,0.8753 7.5855,0.8753 l 20.6558,0 c 2.1005,0 3.9094,-0.2723 5.4265,-0.8169 1.5171,-0.5446 2.7618,-1.3421 3.7343,-2.3924 0.9725,-1.0502 1.7116,-2.3339 2.2173,-3.851 0.5057,-1.5171 0.7586,-3.2482 0.7586,-5.1931 l 0,-134.554244 c 0,-0.777994 -0.214,-1.47819 -0.6419,-2.100586 -0.4279,-0.622396 -1.2059,-1.128094 -2.334,-1.51709 -1.128,-0.388998 -2.6257,-0.700196 -4.4929,-0.933593 -1.8672,-0.2334 -4.2401,-0.3501 -7.1186,-0.3501 -2.8008,0 -5.1348,0.1167 -7.002,0.3501 -1.8672,0.233397 -3.3454,0.544595 -4.4346,0.933593 -1.0892,0.388996 -1.8671,0.894694 -2.3339,1.51709 -0.4668,0.622396 -0.7002,1.322592 -0.7002,2.100586 l 0,122.884244 -0.2334,0 L 554.7037,7.984054 c -0.3113,-1.011392 -0.8169,-1.847737 -1.5171,-2.509032 -0.7002,-0.661297 -1.6533,-1.186443 -2.8592,-1.575439 -1.2058,-0.388998 -2.7424,-0.641848 -4.6096,-0.758545 -1.8672,-0.1167 -4.1233,-0.175051 -6.7685,-0.175051 -2.6452,0 -4.9014,0.09725 -6.7686,0.291748 -1.8672,0.194501 -3.4037,0.505699 -4.6096,0.933594 -1.2059,0.427898 -2.1589,0.953045 -2.8591,1.575441 -0.7002,0.622396 -1.167,1.361491 -1.4004,2.217284 l -42.2451,122.767546 -0.2334,0 0,-122.884244 c 0,-0.777994 -0.214,-1.47819 -0.6419,-2.100586 -0.4279,-0.622396 -1.2253,-1.128094 -2.3923,-1.51709 -1.167,-0.388998 -2.6647,-0.700196 -4.4929,-0.933593 -1.8283,-0.2334 -4.1818,-0.3501 -7.0603,-0.3501 -2.8008,0 -5.1348,0.1167 -7.002,0.3501 -1.8672,0.233397 -3.3648,0.544595 -4.4929,0.933593 -1.1281,0.388996 -1.9061,0.894694 -2.334,1.51709 -0.4279,0.622396 -0.6419,1.322592 -0.6419,2.100586 l 0,134.554244 c 0,3.9677 1.0503,7.0019 3.1509,9.1025 2.1006,2.1006 4.9014,3.1509 8.4024,3.1509 z m -248.4507,0 39.0942,0 c 3.9678,0 7.2354,-0.0778 9.8028,-0.2334 2.5674,-0.1556 4.9013,-0.3501 7.0019,-0.5835 6.0684,-0.8558 11.5338,-2.334 16.3963,-4.4346 4.8624,-2.1006 8.9858,-4.843 12.3701,-8.2273 3.3843,-3.3843 5.9711,-7.3909 7.7605,-12.02 1.7894,-4.6291 2.6841,-9.9389 2.6841,-15.9295 0,-5.0569 -0.6419,-9.6665 -1.9256,-13.82881 -1.2837,-4.16227 -3.1703,-7.87719 -5.6599,-11.14477 -2.4896,-3.26758 -5.5627,-6.10726 -9.2192,-8.51905 -3.6566,-2.41178 -7.8189,-4.35676 -12.4868,-5.83496 2.2561,-1.08918 4.3762,-2.41179 6.3601,-3.96777 1.9838,-1.55598 3.851,-3.44263 5.6015,-5.65991 1.7505,-2.21729 3.4038,-4.74577 4.9597,-7.58545 1.556,-2.83969 3.0731,-6.04891 4.5513,-9.62769 l 12.7202,-29.7583 c 1.167,-2.95638 1.945,-5.11531 2.334,-6.4768 0.389,-1.361496 0.5835,-2.431238 0.5835,-3.209233 0,-0.855795 -0.1556,-1.575439 -0.4668,-2.158935 -0.3112,-0.583497 -1.0503,-1.069743 -2.2173,-1.458742 -1.167,-0.388996 -2.8785,-0.661294 -5.1347,-0.816893 -2.2562,-0.155599 -5.3293,-0.2334 -9.2193,-0.2334 -3.2676,0 -5.8738,0.077801 -7.8188,0.2334 -1.945,0.155599 -3.4815,0.447347 -4.6096,0.875244 -1.1281,0.427896 -1.9256,0.972493 -2.3924,1.633788 -0.4668,0.661297 -0.8558,1.458741 -1.167,2.392335 L 271.2432,41.82683 c -1.6338,3.81217 -3.2287,7.19645 -4.7847,10.15283 -1.5559,2.95638 -3.287,5.42651 -5.1931,7.4104 -1.906,1.98389 -4.1039,3.48153 -6.5935,4.49292 -2.4896,1.01139 -5.3681,1.51709 -8.6357,1.51709 l -9.5694,0 0,-57.532714 c 0,-0.777994 -0.2528,-1.47819 -0.7585,-2.100586 -0.5057,-0.622396 -1.342,-1.128094 -2.509,-1.51709 -1.167,-0.388998 -2.723,-0.700196 -4.668,-0.933593 -1.945,-0.2334 -4.4346,-0.3501 -7.4687,-0.3501 -2.9564,0 -5.4266,0.1167 -7.4104,0.3501 -1.9839,0.233397 -3.5594,0.544595 -4.7264,0.933593 -1.167,0.388996 -1.9839,0.894694 -2.4507,1.51709 -0.4667,0.622396 -0.7001,1.322592 -0.7001,2.100586 l 0,137.121544 c 0,3.4232 0.8752,5.8933 2.6257,7.4104 1.7505,1.5171 3.9094,2.2757 6.4768,2.2757 z m 582.3017,0.7002 c 3.0342,0 5.5238,-0.1167 7.4688,-0.3501 1.945,-0.2334 3.501,-0.5446 4.668,-0.9336 1.167,-0.389 2.0033,-0.8947 2.509,-1.5171 0.5057,-0.6224 0.7585,-1.3226 0.7585,-2.1006 l 0,-142.606444 c 0,-0.777994 -0.2528,-1.47819 -0.7585,-2.100586 -0.5057,-0.622396 -1.342,-1.128094 -2.509,-1.51709 -1.167,-0.388998 -2.723,-0.700196 -4.668,-0.933593 -1.945,-0.2334 -4.4346,-0.3501 -7.4688,-0.3501 -2.9563,0 -5.4265,0.1167 -7.4104,0.3501 -1.9838,0.233397 -3.5593,0.544595 -4.7263,0.933593 -1.167,0.388996 -2.0033,0.894694 -2.509,1.51709 -0.5057,0.622396 -0.7586,1.322592 -0.7586,2.100586 l 0,142.606444 c 0,0.778 0.2529,1.4782 0.7586,2.1006 0.5057,0.6224 1.3615,1.1281 2.5674,1.5171 1.2058,0.389 2.7813,0.7002 4.7263,0.9336 1.945,0.2334 4.3957,0.3501 7.352,0.3501 z"
           id="path26"
           style="fill:#595959;fill-opacity:1;fill-rule:nonzero;stroke:none" /><g
           transform="matrix(1,0,0,-1,189.3204,3.666183)"
           id="g28"><path
             d="m 190.0337,-93.94287 c -3.7344,0 -6.9825,0.70019 -9.7444,2.10058 -2.7619,1.4004 -5.057,3.28704 -6.8852,5.65992 -1.8283,2.37288 -3.2287,5.17366 -4.2012,8.40234 -0.9725,3.22868 -1.5365,6.67131 -1.6921,10.32788 l 43.8789,0 c 0.2334,-8.24675 -1.4199,-14.72355 -4.9598,-19.43042 -3.5398,-4.70686 -9.0053,-7.0603 -16.3962,-7.0603 z m 0.7002,-20.77243 c 8.7135,0 16.1628,1.2837 22.3479,3.851 6.1851,2.5674 11.2615,6.1268 15.2293,10.678 3.9677,4.55129 6.8852,9.93891 8.7524,16.16286 1.8672,6.22396 2.8008,12.99251 2.8008,20.30567 l 0,4.66797 c 0,3.57877 -0.7975,6.22396 -2.3924,7.93554 -1.5949,1.71159 -3.7927,2.56738 -6.5935,2.56738 l -63.3676,0 c 0,4.43458 0.5251,8.4607 1.5754,12.07837 1.0503,3.61768 2.723,6.69076 5.018,9.21924 2.2951,2.52849 5.2515,4.45402 8.8692,5.77661 3.6177,1.32259 7.955,1.98389 13.012,1.98389 5.1347,0 9.6471,-0.36955 13.5371,-1.10864 3.8899,-0.7391 7.2548,-1.55599 10.0945,-2.45069 2.8396,-0.89469 5.1931,-1.71159 7.0603,-2.45068 1.8671,-0.73909 3.3842,-1.10864 4.5512,-1.10864 0.7002,0 1.2837,0.13615 1.7505,0.40845 0.4668,0.27229 0.8558,0.75854 1.167,1.45874 0.3112,0.70019 0.5252,1.69213 0.6418,2.97583 0.1167,1.28369 0.1751,2.89803 0.1751,4.84301 0,1.71159 -0.0389,3.17033 -0.1167,4.37622 -0.0778,1.2059 -0.1945,2.23674 -0.3501,3.092533 -0.1556,0.855795 -0.389,1.575439 -0.7002,2.158935 -0.3112,0.583497 -0.7196,1.147544 -1.2253,1.692139 -0.5057,0.544597 -1.8867,1.283692 -4.1429,2.217286 -2.2561,0.933594 -5.1347,1.847737 -8.6357,2.7424318 -3.501,0.8946943 -7.5077,1.6726892 -12.02,2.3339832 -4.5124,0.661295 -9.3359,0.991945 -14.4707,0.991945 -9.2582,0 -17.3688,-1.166993 -24.3318,-3.5009767 -6.963,-2.3339863 -12.7786,-5.8738613 -17.4465,-10.6196263 -4.668,-4.74577 -8.1495,-10.73633 -10.4446,-17.97168 -2.2951,-7.23535 -3.4426,-15.7155 -3.4426,-25.44043 0,-9.25814 1.2058,-17.60213 3.6176,-25.03199 2.4118,-7.42985 5.9128,-13.73161 10.503,-18.90527 4.5901,-5.17361 10.1722,-9.12201 16.7463,-11.84501 6.5741,-2.7229 13.9845,-4.0844 22.2312,-4.0844 z m 308.4126,-12.6035 0,51.23091 13.7705,0 c 4.9014,0 9.0053,-0.6613 12.3118,-1.98389 3.3064,-1.32258 6.01,-3.17033 8.1106,-5.54321 2.1005,-2.37288 3.6955,-5.21257 4.7846,-8.51904 1.0892,-3.30648 1.6338,-6.90471 1.6338,-10.79467 0,-5.2904 -0.9336,-9.6472 -2.8008,-13.0703 -1.8672,-3.4232 -4.1623,-5.9517 -6.8852,-7.5855 -2.723,-1.6338 -5.5821,-2.6646 -8.5774,-3.0925 -2.9953,-0.4279 -6.0878,-0.6418 -9.2776,-0.6418 l -13.0703,0 z m -452.00001,-0.2334 0,42.82857 15.6377,0 c 4.35677,0 8.16894,-0.52515 11.43652,-1.57544 3.26758,-1.0503 5.99056,-2.52849 8.16895,-4.43457 2.17839,-1.90608 3.81218,-4.18172 4.90136,-6.82691 1.0892,-2.64515 1.63379,-5.60155 1.63379,-8.86915 0,-4.9792 -1.1281,-9.1803 -3.38428,-12.6035 -2.25617,-3.4232 -5.95166,-5.835 -11.08642,-7.2354 -1.55599,-0.389 -3.32592,-0.7002 -5.30982,-0.9335 -1.98388,-0.2334 -4.72631,-0.3501 -8.22729,-0.3501 l -13.77051,0 z m 431.69431,-23.4566 35.5933,0 c 3.5788,0 6.9825,0.1361 10.2112,0.4085 3.2287,0.2723 7.0991,0.8558 11.6115,1.7504 4.5124,0.8947 9.0831,2.548 13.7122,4.9598 4.6291,2.4117 8.5774,5.4654 11.845,9.1609 3.2675,3.6954 5.7571,8.0133 7.4687,12.9536 1.7116,4.9402 2.5674,10.4834 2.5674,16.6296 0,8.48015 -1.3226,15.9878 -3.9678,22.52295 -2.6452,6.53516 -6.4963,12.03948 -11.5532,16.51294 -5.0569,4.47347 -11.2615,7.8772 -18.6135,10.21118 -7.3521,2.33399 -16.0073,3.50098 -25.9656,3.50098 l -12.6035,0 0,48.196777 c 0,0.777995 -0.2529,1.478191 -0.7586,2.100587 -0.5057,0.622395 -1.342,1.1280934 -2.509,1.5170895 -1.167,0.3889984 -2.723,0.7001963 -4.668,0.9335935 -1.9449,0.2333995 -4.4345,0.3500993 -7.4687,0.3500993 -2.9564,0 -5.4265,-0.1166998 -7.4104,-0.3500993 -1.9839,-0.2333972 -3.5593,-0.5445951 -4.7263,-0.9335935 -1.167,-0.3889961 -1.9839,-0.8946945 -2.4507,-1.5170895 -0.4668,-0.622396 -0.7002,-1.322592 -0.7002,-2.100587 l 0,-135.837927 c 0,-3.6565 0.953,-6.399 2.8591,-8.2273 1.9061,-1.8282 4.4152,-2.7424 7.5271,-2.7424 z m -204.833,0 20.0723,0 c 3.5787,0 6.6518,0.2918 9.2192,0.8753 2.5674,0.5835 4.7847,1.556 6.6519,2.9174 1.8672,1.3615 3.4231,3.1509 4.6679,5.3682 1.2449,2.2173 2.334,4.9597 3.2676,8.2273 l 32.6758,89.97509 0.4668,0 33.8428,-89.74169 c 1.0114,-3.2676 2.12,-6.0295 3.3259,-8.2857 1.2059,-2.2561 2.6063,-4.0844 4.2012,-5.4848 1.5948,-1.4004 3.4815,-2.3923 5.6599,-2.9758 2.1784,-0.5835 4.7069,-0.8753 7.5854,-0.8753 l 20.6558,0 c 2.1006,0 3.9094,0.2723 5.4265,0.8169 1.5171,0.5446 2.7619,1.342 3.7344,2.3923 0.9725,1.0503 1.7116,2.334 2.2173,3.8511 0.5057,1.5171 0.7585,3.2482 0.7585,5.1931 l 0,134.554227 c 0,0.777995 -0.2139,1.478191 -0.6418,2.100587 -0.4279,0.622395 -1.2059,1.1280934 -2.334,1.5170895 -1.1281,0.3889984 -2.6258,0.7001963 -4.4929,0.9335935 -1.8672,0.2333995 -4.2401,0.3500993 -7.1187,0.3500993 -2.8008,0 -5.1348,-0.1166998 -7.0019,-0.3500993 -1.8672,-0.2333972 -3.3454,-0.5445951 -4.4346,-0.9335935 -1.0892,-0.3889961 -1.8672,-0.8946945 -2.334,-1.5170895 -0.4668,-0.622396 -0.7002,-1.322592 -0.7002,-2.100587 l 0,-122.884227 -0.2334,0 -43.7622,122.767529 c -0.3112,1.011392 -0.8169,1.847738 -1.5171,2.509033 -0.7002,0.661297 -1.6532,1.1864424 -2.8591,1.5754385 -1.2059,0.3889984 -2.7425,0.6418475 -4.6096,0.758545 -1.8672,0.1166997 -4.1234,0.1750508 -6.7686,0.1750508 -2.6452,0 -4.9014,-0.0972502 -6.7685,-0.2917483 -1.8672,-0.1945004 -3.4038,-0.50569819 -4.6097,-0.9335935 -1.2058,-0.4278975 -2.1589,-0.9530455 -2.8591,-1.5754405 -0.7002,-0.622396 -1.167,-1.361492 -1.4004,-2.217285 l -42.2451,-122.767529 -0.2334,0 0,122.884227 c 0,0.777995 -0.214,1.478191 -0.6419,2.100587 -0.4278,0.622395 -1.2253,1.1280934 -2.3923,1.5170895 -1.167,0.3889984 -2.6646,0.7001963 -4.4929,0.9335935 -1.8283,0.2333995 -4.1817,0.3500993 -7.0603,0.3500993 -2.8008,0 -5.1348,-0.1166998 -7.002,-0.3500993 -1.8671,-0.2333972 -3.3648,-0.5445951 -4.4929,-0.9335935 -1.1281,-0.3889961 -1.9061,-0.8946945 -2.334,-1.5170895 -0.4279,-0.622396 -0.6418,-1.322592 -0.6418,-2.100587 l 0,-134.554227 c 0,-3.9677 1.0503,-7.0019 3.1509,-9.1025 2.1006,-2.1006 4.9013,-3.1509 8.4023,-3.1509 z m -248.45066,0 39.09423,0 c 3.96778,0 7.23536,0.0778 9.80274,0.2334 2.56738,0.1556 4.90137,0.3501 7.00195,0.5835 6.06836,0.8558 11.53377,2.334 16.39624,4.4346 4.8625,2.1006 8.9858,4.843 12.3701,8.2273 3.3843,3.3842 5.9711,7.3909 7.7605,12.02 1.7894,4.6291 2.6841,9.9389 2.6841,15.9294 0,5.057 -0.6418,9.66661 -1.9255,13.82889 -1.2837,4.16228 -3.1704,7.8772 -5.6599,11.14478 -2.4896,3.26757 -5.5627,6.10725 -9.2193,8.51904 -3.6566,2.41179 -7.81884,4.35677 -12.4868,5.83496 2.25618,1.08919 4.37622,2.41179 6.3601,3.96777 1.98389,1.55599 3.8511,3.44263 5.6016,5.65992 1.7505,2.21728 3.4037,4.74576 4.9597,7.58545 1.556,2.83968 3.0731,6.04891 4.5513,9.62768 l 12.7202,29.7583 c 1.167,2.95638 1.945,5.115317 2.334,6.476808 0.389,1.361491 0.5835,2.431234 0.5835,3.209229 0,0.855795 -0.1557,1.575438 -0.4668,2.158935 -0.3112,0.583496 -1.0503,1.0697426 -2.2173,1.458741 -1.167,0.38899615 -2.8786,0.6612948 -5.1348,0.8168937 -2.2562,0.1555989 -5.3293,0.2333996 -9.2192,0.2333996 -3.2676,0 -5.8739,-0.0778007 -7.8189,-0.2333996 -1.945,-0.1555989 -3.4815,-0.44734712 -4.60961,-0.8752447 -1.12809,-0.4278953 -1.92553,-0.972493 -2.39232,-1.633787 -0.46681,-0.661297 -0.8558,-1.458742 -1.167,-2.392335 L 81.92286,-38.16064 c -1.63379,-3.81218 -3.22868,-7.19645 -4.78467,-10.15284 -1.55598,-2.95638 -3.28703,-5.42651 -5.19311,-7.4104 -1.90609,-1.98388 -4.10393,-3.48153 -6.59351,-4.49292 -2.48959,-1.01139 -5.36816,-1.51709 -8.63574,-1.51709 l -9.56934,0 0,57.532717 c 0,0.777995 -0.25285,1.478191 -0.75854,2.100587 -0.5057,0.622395 -1.34204,1.1280934 -2.50903,1.5170895 -1.167,0.3889984 -2.72299,0.7001963 -4.66798,0.9335935 -1.94498,0.2333995 -4.43457,0.3500993 -7.46874,0.3500993 -2.95638,0 -5.42651,-0.1166998 -7.4104,-0.3500993 C 22.34791,0.1166998 20.77247,-0.1944981 19.60548,-0.5834965 18.43849,-0.9724926 17.62159,-1.478191 17.15479,-2.100586 16.688,-2.722982 16.4546,-3.423178 16.4546,-4.201173 l 0,-137.121627 c 0,-3.4231 0.87525,-5.8933 2.62573,-7.4104 1.75049,-1.517 3.90942,-2.2756 6.47681,-2.2756 z m 582.30176,-0.7002 c 3.0342,0 5.5237,0.1167 7.4687,0.3501 1.945,0.2334 3.501,0.5446 4.668,0.9336 1.167,0.389 2.0034,0.8947 2.509,1.5171 0.5057,0.6224 0.7586,1.3226 0.7586,2.1006 l 0,142.606427 c 0,0.777995 -0.2529,1.478191 -0.7586,2.100587 -0.5056,0.622395 -1.342,1.1280934 -2.509,1.5170895 -1.167,0.3889984 -2.723,0.7001963 -4.668,0.9335935 -1.945,0.2333995 -4.4345,0.3500993 -7.4687,0.3500993 -2.9564,0 -5.4265,-0.1166998 -7.4104,-0.3500993 -1.9839,-0.2333972 -3.5593,-0.5445951 -4.7263,-0.9335935 -1.167,-0.3889961 -2.0034,-0.8946945 -2.5091,-1.5170895 -0.5056,-0.622396 -0.7585,-1.322592 -0.7585,-2.100587 l 0,-142.606427 c 0,-0.778 0.2529,-1.4782 0.7585,-2.1006 0.5057,-0.6224 1.3615,-1.1281 2.5674,-1.5171 1.2059,-0.389 2.7813,-0.7002 4.7263,-0.9336 1.945,-0.2334 4.3957,-0.3501 7.3521,-0.3501 z"
             id="path30"
             style="fill:none;stroke:#595959;stroke-width:1;stroke-linecap:butt;stroke-linejoin:round;stroke-miterlimit:10;stroke-opacity:1;stroke-dasharray:none" /></g><path
           d="m 110,158 28,0 0,-28 -28,0 0,28 z"
           id="path32"
           style="fill:#59646d;fill-opacity:1;fill-rule:nonzero;stroke:none" /><path
           d="m 142,127 28,0 0,-28 -28,0 0,28 z"
           id="path34"
           style="fill:#595959;fill-opacity:1;fill-rule:nonzero;stroke:none" /><path
           d="m 78,158 28,0 0,-28 -28,0 0,28 z"
           id="path36"
           style="fill:#587a96;fill-opacity:1;fill-rule:nonzero;stroke:none" /><path
           d="m 46,158 28,0 0,-28 -28,0 0,28 z"
           id="path38"
           style="fill:#588cb6;fill-opacity:1;fill-rule:nonzero;stroke:none" /><path
           d="m 14,127 27,0 0,-28 -27,0 0,28 z"
           id="path40"
           style="fill:#5b9bd5;fill-opacity:1;fill-rule:nonzero;stroke:none" /><path
           d="m 14,65 27,0 0,-28 -27,0 0,28 z"
           id="path42"
           style="fill:#595959;fill-opacity:1;fill-rule:nonzero;stroke:none" /><path
           d="M 46,34 74,34 74,6 46,6 46,34 z"
           id="path44"
           style="fill:#59646d;fill-opacity:1;fill-rule:nonzero;stroke:none" /><path
           d="m 78,34 28,0 0,-28 -28,0 0,28 z"
           id="path46"
           style="fill:#587a96;fill-opacity:1;fill-rule:nonzero;stroke:none" /><path
           d="m 110,34 28,0 0,-28 -28,0 0,28 z"
           id="path48"
           style="fill:#588cb6;fill-opacity:1;fill-rule:nonzero;stroke:none" /><path
           d="m 142,65 28,0 0,-28 -28,0 0,28 z"
           id="path50"
           style="fill:#5b9bd5;fill-opacity:1;fill-rule:nonzero;stroke:none" /><path
           d="m 142,158 c 15.464,0 28,-12.536 28,-28 l -28,0 0,28 z"
           id="path52"
           style="fill:#595959;fill-opacity:1;fill-rule:nonzero;stroke:none" /><path
           d="m 14,130 c 0,15.464 12.31218,28 27.50003,28 l -6e-5,-28 L 14,130 z"
           id="path54"
           style="fill:#5b9bd5;fill-opacity:1;fill-rule:nonzero;stroke:none" /><path
           d="M 41.49997,5.999998 C 26.31212,5.999998 13.99994,18.53603 13.99994,34 l 27.50003,0 0,-28.000002 z"
           id="path56"
           style="fill:#595959;fill-opacity:1;fill-rule:nonzero;stroke:none" /><path
           d="M 170,34 C 170,18.53603 157.464,5.999998 142,5.999998 L 142,34 l 28,0 z"
           id="path58"
           style="fill:#5b9bd5;fill-opacity:1;fill-rule:nonzero;stroke:none" /><path
           d="m 184,72.67797 -14,0 0,-3.67797 -28,0 0,3.67797 -14,0 L 156,90 184,72.67797 z"
           id="path60"
           style="fill:#5b9bd5;fill-opacity:1;fill-rule:nonzero;stroke:none" /><path
           d="m 0,91.32203 14,0 0,3.67797 28,0 0,-3.67797 14,0 L 28,74 0,91.32203 z"
           id="path62"
           style="fill:#5b9bd5;fill-opacity:1;fill-rule:nonzero;stroke:none" /><path
           d="m 66,96.5 c 0,6.9036 4.25329,12.5 9.5,12.5 5.24671,0 9.5,-5.5964 9.5,-12.5 C 85,89.59644 80.74671,84 75.5,84 70.25329,84 66,89.59644 66,96.5 z"
           id="path64"
           style="fill:#5b9bd5;fill-opacity:1;fill-rule:nonzero;stroke:none" /><path
           d="m 98,96.5 c 0,6.9036 4.4772,12.5 10,12.5 5.5228,0 10,-5.5964 10,-12.5 0,-6.90356 -4.4772,-12.5 -10,-12.5 -5.5228,0 -10,5.59644 -10,12.5 z"
           id="path66"
           style="fill:#5b9bd5;fill-opacity:1;fill-rule:nonzero;stroke:none" /><g
           transform="matrix(7.874016e-5,0,0,-7.874016e-5,70.5,96.5)"
           id="g68"><path
             d="M 550580.5,330912.5 C 513428.1,473873.9 361898.4,561018 212129.3,525554.3 111769.2,501790.1 33364.7,427060.8 8319.393,331298.1"
             id="path70"
             style="fill:none;stroke:#5b9bd5;stroke-width:88900;stroke-linecap:round;stroke-linejoin:miter;stroke-miterlimit:8;stroke-opacity:1;stroke-dasharray:none" /></g></g></g></g></svg>