<?xml version="1.0" encoding="UTF-8" standalone="no"?>
<!-- Created with Inkscape (http://www.inkscape.org/) -->

<svg
   xmlns:dc="http://purl.org/dc/elements/1.1/"
   xmlns:cc="http://creativecommons.org/ns#"
   xmlns:rdf="http://www.w3.org/1999/02/22-rdf-syntax-ns#"
   xmlns:svg="http://www.w3.org/2000/svg"
   xmlns="http://www.w3.org/2000/svg"
   xmlns:sodipodi="http://sodipodi.sourceforge.net/DTD/sodipodi-0.dtd"
   xmlns:inkscape="http://www.inkscape.org/namespaces/inkscape"
   version="1.1"
   width="1045"
   height="212.5"
   id="svg2"
   xml:space="preserve"
   sodipodi:docname="rempi-logo-white.svg"
   inkscape:version="0.92.4 5da689c313, 2019-01-14"><metadata
     id="metadata36"><rdf:RDF><cc:Work
         rdf:about=""><dc:format>image/svg+xml</dc:format><dc:type
           rdf:resource="http://purl.org/dc/dcmitype/StillImage" /><dc:title></dc:title></cc:Work></rdf:RDF></metadata><sodipodi:namedview
     pagecolor="#ffffff"
     bordercolor="#666666"
     borderopacity="1"
     objecttolerance="10"
     gridtolerance="10"
     guidetolerance="10"
     inkscape:pageopacity="0"
     inkscape:pageshadow="2"
     inkscape:window-width="1920"
     inkscape:window-height="1027"
     id="namedview34"
     showgrid="false"
     inkscape:zoom="1.1483254"
     inkscape:cx="488.55332"
     inkscape:cy="92.206928"
     inkscape:window-x="0"
     inkscape:window-y="0"
     inkscape:window-maximized="1"
     inkscape:current-layer="layer3" /><defs
     id="defs6"><clipPath
       id="clipPath20"><path
         d="M 0,0 836,0 836,170 0,170 0,0 z"
         id="path22" /></clipPath></defs><g
     inkscape:groupmode="layer"
     id="layer1"
     inkscape:label="background"
     sodipodi:insensitive="true"
     style="display:none"><rect
       style="opacity:1;fill:#004d61;fill-opacity:1;stroke:none;stroke-width:3.93485498;stroke-linecap:round;stroke-linejoin:round;stroke-miterlimit:4;stroke-dasharray:none;stroke-dashoffset:0;stroke-opacity:1"
       id="rect845"
       width="1731.2168"
       height="1428.1666"
       x="-348.33334"
       y="-473.71674" /></g><g
     inkscape:groupmode="layer"
     id="layer2"
     inkscape:label="orig"
     style="display:none"><g
       transform="matrix(1.25,0,0,-1.25,0,212.5)"
       id="g12"><g
         id="g14" /><g
         id="g16"><g
           clip-path="url(#clipPath20)"
           id="g18"><path
             d="M 0,170 H 836 V 0 H 0 Z"
             id="path24"
             style="fill:#ffffff;fill-opacity:0;fill-rule:nonzero;stroke:none"
             inkscape:connector-curvature="0" /><path
             d="m 379.354,97.60905 c -3.7343,0 -6.9825,-0.70019 -9.7443,-2.10058 -2.7619,-1.40039 -5.057,-3.28703 -6.8853,-5.65991 -1.8283,-2.37288 -3.2286,-5.17366 -4.2011,-8.40235 -0.9725,-3.22868 -1.5366,-6.67131 -1.6922,-10.32788 H 400.71 c 0.2334,8.24675 -1.4198,14.72356 -4.9597,19.43042 -3.5399,4.70687 -9.0053,7.0603 -16.3963,7.0603 z m 0.7002,20.77245 c 8.7136,0 16.1629,-1.2837 22.348,-3.8511 6.185,-2.5673 11.2614,-6.1267 15.2292,-10.6779 3.9678,-4.55131 6.8853,-9.93893 8.7525,-16.16288 1.8671,-6.22395 2.8007,-12.99251 2.8007,-20.30566 v -4.66797 c 0,-3.57878 -0.7974,-6.22396 -2.3923,-7.93555 -1.5949,-1.71158 -3.7927,-2.56738 -6.5935,-2.56738 h -63.3677 c 0,-4.43457 0.5252,-8.46069 1.5755,-12.07837 1.0502,-3.61768 2.7229,-6.69075 5.018,-9.21924 2.2951,-2.52849 5.2515,-4.45402 8.8691,-5.77661 3.6177,-1.32259 7.9551,-1.98389 13.012,-1.98389 5.1348,0 9.6472,0.36955 13.5371,1.10865 3.89,0.73909 7.2548,1.55598 10.0945,2.45068 2.8397,0.89469 5.1931,1.71159 7.0603,2.45068 1.8672,0.73909 3.3843,1.10865 4.5513,1.10865 0.7002,0 1.2837,-0.13616 1.7505,-0.40845 0.4668,-0.2723 0.8558,-0.75855 1.167,-1.45874 0.3112,-0.7002 0.5251,-1.69214 0.6418,-2.97583 0.1167,-1.28369 0.175,-2.89803 0.175,-4.84302 0,-1.71159 -0.0388,-3.17033 -0.1167,-4.37622 -0.0777,-1.20589 -0.1945,-2.23673 -0.35,-3.09253 -0.1556,-0.85579 -0.389,-1.57544 -0.7002,-2.15893 -0.3112,-0.5835 -0.7197,-1.147548 -1.2254,-1.692144 C 421.3852,8.723149 420.0043,7.984054 417.7481,7.05046 415.4919,6.116867 412.6133,5.202723 409.1124,4.308029 405.6114,3.413334 401.6047,2.63534 397.0923,1.974045 392.58,1.31275 387.7564,0.9821005 382.6216,0.9821005 c -9.2581,0 -17.3687,1.1669935 -24.3317,3.5009765 -6.9631,2.333986 -12.7786,5.873863 -17.4466,10.619633 -4.6679,4.74577 -8.1495,10.73633 -10.4446,17.97168 -2.295,7.23535 -3.4426,15.71549 -3.4426,25.44043 0,9.25813 1.2059,17.60212 3.6177,25.03198 2.4118,7.42985 5.9127,13.73161 10.5029,18.9053 4.5902,5.1736 10.1723,9.122 16.7464,11.8449 6.574,2.723 13.9844,4.0845 22.2311,4.0845 z M 688.4668,130.985 V 79.75407 h 13.7706 c 4.9013,0 9.0053,0.6613 12.3117,1.98389 3.3065,1.32259 6.01,3.17033 8.1106,5.54321 2.1006,2.37288 3.6955,5.21257 4.7847,8.51905 1.0892,3.30647 1.6338,6.90468 1.6338,10.79468 0,5.2904 -0.9336,9.6471 -2.8008,13.0703 -1.8672,3.4232 -4.1623,5.9517 -6.8853,7.5855 -2.7229,1.6337 -5.5821,2.6646 -8.5774,3.0925 -2.9953,0.4279 -6.0878,0.6418 -9.2775,0.6418 z m -452,0.2334 V 88.38982 h 15.6377 c 4.3568,0 8.169,0.52514 11.4366,1.57544 3.2675,1.05029 5.9905,2.52848 8.1689,4.43457 2.1784,1.90608 3.8122,4.18171 4.9014,6.82687 1.0892,2.6452 1.6338,5.6016 1.6338,8.8692 0,4.9791 -1.1281,9.1803 -3.3843,12.6035 -2.2562,3.4232 -5.9517,5.8349 -11.0864,7.2353 -1.556,0.389 -3.326,0.7002 -5.3098,0.9336 -1.9839,0.2334 -4.7264,0.3501 -8.2273,0.3501 z m 431.6944,23.4566 h 35.5932 c 3.5788,0 6.9825,-0.1362 10.2112,-0.4085 3.2287,-0.2723 7.0992,-0.8558 11.6116,-1.7505 4.5124,-0.8946 9.0831,-2.5479 13.7122,-4.9597 4.629,-2.4118 8.5773,-5.4654 11.8449,-9.1609 3.2676,-3.6954 5.7572,-8.0133 7.4688,-12.9536 1.7116,-4.9402 2.5674,-10.4835 2.5674,-16.6296 0,-8.4802 -1.3226,-15.98781 -3.9678,-22.52297 -2.6452,-6.53516 -6.4963,-12.03947 -11.5532,-16.51294 -5.057,-4.47347 -11.2615,-7.8772 -18.6136,-10.21118 -7.352,-2.33399 -16.0072,-3.50098 -25.9655,-3.50098 H 688.4668 V 7.867356 c 0,-0.777994 -0.2528,-1.47819 -0.7585,-2.100586 -0.5057,-0.622396 -1.342,-1.128094 -2.509,-1.51709 -1.167,-0.388998 -2.723,-0.700196 -4.668,-0.933593 -1.945,-0.2334 -4.4346,-0.3501 -7.4688,-0.3501 -2.9563,0 -5.4265,0.1167 -7.4104,0.3501 -1.9838,0.233397 -3.5593,0.544595 -4.7263,0.933593 -1.167,0.388996 -1.9839,0.894694 -2.4507,1.51709 -0.4668,0.622396 -0.7002,1.322592 -0.7002,2.100586 V 143.7052 c 0,3.6566 0.9531,6.3991 2.8592,8.2273 1.9061,1.8283 4.4151,2.7425 7.5271,2.7425 z m -204.833,0 h 20.0722 c 3.5788,0 6.6519,-0.2918 9.2193,-0.8753 2.5674,-0.5835 4.7846,-1.556 6.6518,-2.9175 1.8672,-1.3614 3.4232,-3.1508 4.668,-5.3681 1.2448,-2.2173 2.334,-4.9597 3.2676,-8.2273 l 32.6758,-89.97511 h 0.4668 l 33.8427,89.74171 c 1.0114,3.2676 2.1201,6.0294 3.326,8.2856 1.2059,2.2562 2.6062,4.0845 4.2011,5.4849 1.5949,1.4004 3.4816,2.3923 5.6599,2.9758 2.1784,0.5835 4.7069,0.8753 7.5855,0.8753 h 20.6558 c 2.1005,0 3.9094,-0.2723 5.4265,-0.8169 1.5171,-0.5446 2.7618,-1.3421 3.7343,-2.3924 0.9725,-1.0502 1.7116,-2.3339 2.2173,-3.851 0.5057,-1.5171 0.7586,-3.2482 0.7586,-5.1931 V 7.867356 c 0,-0.777994 -0.214,-1.47819 -0.6419,-2.100586 -0.4279,-0.622396 -1.2059,-1.128094 -2.334,-1.51709 -1.128,-0.388998 -2.6257,-0.700196 -4.4929,-0.933593 -1.8672,-0.2334 -4.2401,-0.3501 -7.1186,-0.3501 -2.8008,0 -5.1348,0.1167 -7.002,0.3501 -1.8672,0.233397 -3.3454,0.544595 -4.4346,0.933593 -1.0892,0.388996 -1.8671,0.894694 -2.3339,1.51709 -0.4668,0.622396 -0.7002,1.322592 -0.7002,2.100586 V 130.7516 h -0.2334 L 554.7037,7.984054 c -0.3113,-1.011392 -0.8169,-1.847737 -1.5171,-2.509032 -0.7002,-0.661297 -1.6533,-1.186443 -2.8592,-1.575439 -1.2058,-0.388998 -2.7424,-0.641848 -4.6096,-0.758545 -1.8672,-0.1167 -4.1233,-0.175051 -6.7685,-0.175051 -2.6452,0 -4.9014,0.09725 -6.7686,0.291748 -1.8672,0.194501 -3.4037,0.505699 -4.6096,0.933594 -1.2059,0.427898 -2.1589,0.953045 -2.8591,1.575441 -0.7002,0.622396 -1.167,1.361491 -1.4004,2.217284 L 481.0665,130.7516 h -0.2334 V 7.867356 c 0,-0.777994 -0.214,-1.47819 -0.6419,-2.100586 -0.4279,-0.622396 -1.2253,-1.128094 -2.3923,-1.51709 -1.167,-0.388998 -2.6647,-0.700196 -4.4929,-0.933593 -1.8283,-0.2334 -4.1818,-0.3501 -7.0603,-0.3501 -2.8008,0 -5.1348,0.1167 -7.002,0.3501 -1.8672,0.233397 -3.3648,0.544595 -4.4929,0.933593 -1.1281,0.388996 -1.9061,0.894694 -2.334,1.51709 -0.4279,0.622396 -0.6419,1.322592 -0.6419,2.100586 V 142.4216 c 0,3.9677 1.0503,7.0019 3.1509,9.1025 2.1006,2.1006 4.9014,3.1509 8.4024,3.1509 z m -248.4507,0 h 39.0942 c 3.9678,0 7.2354,-0.0778 9.8028,-0.2334 2.5674,-0.1556 4.9013,-0.3501 7.0019,-0.5835 6.0684,-0.8558 11.5338,-2.334 16.3963,-4.4346 4.8624,-2.1006 8.9858,-4.843 12.3701,-8.2273 3.3843,-3.3843 5.9711,-7.3909 7.7605,-12.02 1.7894,-4.6291 2.6841,-9.9389 2.6841,-15.9295 0,-5.0569 -0.6419,-9.6665 -1.9256,-13.82881 -1.2837,-4.16227 -3.1703,-7.87719 -5.6599,-11.14477 -2.4896,-3.26758 -5.5627,-6.10726 -9.2192,-8.51905 -3.6566,-2.41178 -7.8189,-4.35676 -12.4868,-5.83496 2.2561,-1.08918 4.3762,-2.41179 6.3601,-3.96777 1.9838,-1.55598 3.851,-3.44263 5.6015,-5.65991 1.7505,-2.21729 3.4038,-4.74577 4.9597,-7.58545 1.556,-2.83969 3.0731,-6.04891 4.5513,-9.62769 l 12.7202,-29.7583 c 1.167,-2.95638 1.945,-5.11531 2.334,-6.4768 0.389,-1.361496 0.5835,-2.431238 0.5835,-3.209233 0,-0.855795 -0.1556,-1.575439 -0.4668,-2.158935 -0.3112,-0.583497 -1.0503,-1.069743 -2.2173,-1.458742 -1.167,-0.388996 -2.8785,-0.661294 -5.1347,-0.816893 -2.2562,-0.155599 -5.3293,-0.2334 -9.2193,-0.2334 -3.2676,0 -5.8738,0.077801 -7.8188,0.2334 -1.945,0.155599 -3.4815,0.447347 -4.6096,0.875244 -1.1281,0.427896 -1.9256,0.972493 -2.3924,1.633788 -0.4668,0.661297 -0.8558,1.458741 -1.167,2.392335 L 271.2432,41.82683 c -1.6338,3.81217 -3.2287,7.19645 -4.7847,10.15283 -1.5559,2.95638 -3.287,5.42651 -5.1931,7.4104 -1.906,1.98389 -4.1039,3.48153 -6.5935,4.49292 -2.4896,1.01139 -5.3681,1.51709 -8.6357,1.51709 h -9.5694 V 7.867356 c 0,-0.777994 -0.2528,-1.47819 -0.7585,-2.100586 -0.5057,-0.622396 -1.342,-1.128094 -2.509,-1.51709 -1.167,-0.388998 -2.723,-0.700196 -4.668,-0.933593 -1.945,-0.2334 -4.4346,-0.3501 -7.4687,-0.3501 -2.9564,0 -5.4266,0.1167 -7.4104,0.3501 -1.9839,0.233397 -3.5594,0.544595 -4.7264,0.933593 -1.167,0.388996 -1.9839,0.894694 -2.4507,1.51709 -0.4667,0.622396 -0.7001,1.322592 -0.7001,2.100586 V 144.9889 c 0,3.4232 0.8752,5.8933 2.6257,7.4104 1.7505,1.5171 3.9094,2.2757 6.4768,2.2757 z m 582.3017,0.7002 c 3.0342,0 5.5238,-0.1167 7.4688,-0.3501 1.945,-0.2334 3.501,-0.5446 4.668,-0.9336 1.167,-0.389 2.0033,-0.8947 2.509,-1.5171 0.5057,-0.6224 0.7585,-1.3226 0.7585,-2.1006 V 7.867356 c 0,-0.777994 -0.2528,-1.47819 -0.7585,-2.100586 -0.5057,-0.622396 -1.342,-1.128094 -2.509,-1.51709 -1.167,-0.388998 -2.723,-0.700196 -4.668,-0.933593 -1.945,-0.2334 -4.4346,-0.3501 -7.4688,-0.3501 -2.9563,0 -5.4265,0.1167 -7.4104,0.3501 -1.9838,0.233397 -3.5593,0.544595 -4.7263,0.933593 -1.167,0.388996 -2.0033,0.894694 -2.509,1.51709 -0.5057,0.622396 -0.7586,1.322592 -0.7586,2.100586 V 150.4738 c 0,0.778 0.2529,1.4782 0.7586,2.1006 0.5057,0.6224 1.3615,1.1281 2.5674,1.5171 1.2058,0.389 2.7813,0.7002 4.7263,0.9336 1.945,0.2334 4.3957,0.3501 7.352,0.3501 z"
             id="path26"
             style="fill:#595959;fill-opacity:1;fill-rule:nonzero;stroke:none"
             inkscape:connector-curvature="0" /><g
             transform="matrix(1,0,0,-1,189.3204,3.666183)"
             id="g28"><path
               d="m 190.0337,-93.94287 c -3.7344,0 -6.9825,0.70019 -9.7444,2.10058 -2.7619,1.4004 -5.057,3.28704 -6.8852,5.65992 -1.8283,2.37288 -3.2287,5.17366 -4.2012,8.40234 -0.9725,3.22868 -1.5365,6.67131 -1.6921,10.32788 h 43.8789 c 0.2334,-8.24675 -1.4199,-14.72355 -4.9598,-19.43042 -3.5398,-4.70686 -9.0053,-7.0603 -16.3962,-7.0603 z m 0.7002,-20.77243 c 8.7135,0 16.1628,1.2837 22.3479,3.851 6.1851,2.5674 11.2615,6.1268 15.2293,10.678 3.9677,4.55129 6.8852,9.93891 8.7524,16.16286 1.8672,6.22396 2.8008,12.99251 2.8008,20.30567 v 4.66797 c 0,3.57877 -0.7975,6.22396 -2.3924,7.93554 -1.5949,1.71159 -3.7927,2.56738 -6.5935,2.56738 h -63.3676 c 0,4.43458 0.5251,8.4607 1.5754,12.07837 1.0503,3.61768 2.723,6.69076 5.018,9.21924 2.2951,2.52849 5.2515,4.45402 8.8692,5.77661 3.6177,1.32259 7.955,1.98389 13.012,1.98389 5.1347,0 9.6471,-0.36955 13.5371,-1.10864 3.8899,-0.7391 7.2548,-1.55599 10.0945,-2.45069 2.8396,-0.89469 5.1931,-1.71159 7.0603,-2.45068 1.8671,-0.73909 3.3842,-1.10864 4.5512,-1.10864 0.7002,0 1.2837,0.13615 1.7505,0.40845 0.4668,0.27229 0.8558,0.75854 1.167,1.45874 0.3112,0.70019 0.5252,1.69213 0.6418,2.97583 0.1167,1.28369 0.1751,2.89803 0.1751,4.84301 0,1.71159 -0.0389,3.17033 -0.1167,4.37622 -0.0778,1.2059 -0.1945,2.23674 -0.3501,3.092533 -0.1556,0.855795 -0.389,1.575439 -0.7002,2.158935 -0.3112,0.583497 -0.7196,1.147544 -1.2253,1.692139 -0.5057,0.544597 -1.8867,1.283692 -4.1429,2.217286 -2.2561,0.933594 -5.1347,1.847737 -8.6357,2.7424318 -3.501,0.8946943 -7.5077,1.6726892 -12.02,2.3339832 -4.5124,0.661295 -9.3359,0.991945 -14.4707,0.991945 -9.2582,0 -17.3688,-1.166993 -24.3318,-3.5009767 -6.963,-2.3339863 -12.7786,-5.8738613 -17.4465,-10.6196263 -4.668,-4.74577 -8.1495,-10.73633 -10.4446,-17.97168 -2.2951,-7.23535 -3.4426,-15.7155 -3.4426,-25.44043 0,-9.25814 1.2058,-17.60213 3.6176,-25.03199 2.4118,-7.42985 5.9128,-13.73161 10.503,-18.90527 4.5901,-5.17361 10.1722,-9.12201 16.7463,-11.84501 6.5741,-2.7229 13.9845,-4.0844 22.2312,-4.0844 z m 308.4126,-12.6035 v 51.23091 h 13.7705 c 4.9014,0 9.0053,-0.6613 12.3118,-1.98389 3.3064,-1.32258 6.01,-3.17033 8.1106,-5.54321 2.1005,-2.37288 3.6955,-5.21257 4.7846,-8.51904 1.0892,-3.30648 1.6338,-6.90471 1.6338,-10.79467 0,-5.2904 -0.9336,-9.6472 -2.8008,-13.0703 -1.8672,-3.4232 -4.1623,-5.9517 -6.8852,-7.5855 -2.723,-1.6338 -5.5821,-2.6646 -8.5774,-3.0925 -2.9953,-0.4279 -6.0878,-0.6418 -9.2776,-0.6418 z m -452.00001,-0.2334 v 42.82857 h 15.6377 c 4.35677,0 8.16894,-0.52515 11.43652,-1.57544 3.26758,-1.0503 5.99056,-2.52849 8.16895,-4.43457 2.17839,-1.90608 3.81218,-4.18172 4.90136,-6.82691 1.0892,-2.64515 1.63379,-5.60155 1.63379,-8.86915 0,-4.9792 -1.1281,-9.1803 -3.38428,-12.6035 -2.25617,-3.4232 -5.95166,-5.835 -11.08642,-7.2354 -1.55599,-0.389 -3.32592,-0.7002 -5.30982,-0.9335 -1.98388,-0.2334 -4.72631,-0.3501 -8.22729,-0.3501 z m 431.69431,-23.4566 h 35.5933 c 3.5788,0 6.9825,0.1361 10.2112,0.4085 3.2287,0.2723 7.0991,0.8558 11.6115,1.7504 4.5124,0.8947 9.0831,2.548 13.7122,4.9598 4.6291,2.4117 8.5774,5.4654 11.845,9.1609 3.2675,3.6954 5.7571,8.0133 7.4687,12.9536 1.7116,4.9402 2.5674,10.4834 2.5674,16.6296 0,8.48015 -1.3226,15.9878 -3.9678,22.52295 -2.6452,6.53516 -6.4963,12.03948 -11.5532,16.51294 -5.0569,4.47347 -11.2615,7.8772 -18.6135,10.21118 -7.3521,2.33399 -16.0073,3.50098 -25.9656,3.50098 h -12.6035 v 48.196777 c 0,0.777995 -0.2529,1.478191 -0.7586,2.100587 -0.5057,0.622395 -1.342,1.1280934 -2.509,1.5170895 -1.167,0.3889984 -2.723,0.7001963 -4.668,0.9335935 -1.9449,0.2333995 -4.4345,0.3500993 -7.4687,0.3500993 -2.9564,0 -5.4265,-0.1166998 -7.4104,-0.3500993 -1.9839,-0.2333972 -3.5593,-0.5445951 -4.7263,-0.9335935 -1.167,-0.3889961 -1.9839,-0.8946945 -2.4507,-1.5170895 -0.4668,-0.622396 -0.7002,-1.322592 -0.7002,-2.100587 V -140.0391 c 0,-3.6565 0.953,-6.399 2.8591,-8.2273 1.9061,-1.8282 4.4152,-2.7424 7.5271,-2.7424 z m -204.833,0 h 20.0723 c 3.5787,0 6.6518,0.2918 9.2192,0.8753 2.5674,0.5835 4.7847,1.556 6.6519,2.9174 1.8672,1.3615 3.4231,3.1509 4.6679,5.3682 1.2449,2.2173 2.334,4.9597 3.2676,8.2273 l 32.6758,89.97509 h 0.4668 l 33.8428,-89.74169 c 1.0114,-3.2676 2.12,-6.0295 3.3259,-8.2857 1.2059,-2.2561 2.6063,-4.0844 4.2012,-5.4848 1.5948,-1.4004 3.4815,-2.3923 5.6599,-2.9758 2.1784,-0.5835 4.7069,-0.8753 7.5854,-0.8753 h 20.6558 c 2.1006,0 3.9094,0.2723 5.4265,0.8169 1.5171,0.5446 2.7619,1.342 3.7344,2.3923 0.9725,1.0503 1.7116,2.334 2.2173,3.8511 0.5057,1.5171 0.7585,3.2482 0.7585,5.1931 V -4.201173 c 0,0.777995 -0.2139,1.478191 -0.6418,2.100587 -0.4279,0.622395 -1.2059,1.1280934 -2.334,1.5170895 -1.1281,0.3889984 -2.6258,0.7001963 -4.4929,0.9335935 -1.8672,0.2333995 -4.2401,0.3500993 -7.1187,0.3500993 -2.8008,0 -5.1348,-0.1166998 -7.0019,-0.3500993 -1.8672,-0.2333972 -3.3454,-0.5445951 -4.4346,-0.9335935 -1.0892,-0.3889961 -1.8672,-0.8946945 -2.334,-1.5170895 -0.4668,-0.622396 -0.7002,-1.322592 -0.7002,-2.100587 V -127.0854 h -0.2334 L 365.3833,-4.317871 c -0.3112,1.011392 -0.8169,1.847738 -1.5171,2.509033 -0.7002,0.661297 -1.6532,1.1864424 -2.8591,1.5754385 -1.2059,0.3889984 -2.7425,0.6418475 -4.6096,0.758545 -1.8672,0.1166997 -4.1234,0.1750508 -6.7686,0.1750508 -2.6452,0 -4.9014,-0.0972502 -6.7685,-0.2917483 -1.8672,-0.1945004 -3.4038,-0.50569819 -4.6097,-0.9335935 -1.2058,-0.4278975 -2.1589,-0.9530455 -2.8591,-1.5754405 -0.7002,-0.622396 -1.167,-1.361492 -1.4004,-2.217285 L 291.7461,-127.0854 h -0.2334 V -4.201173 c 0,0.777995 -0.214,1.478191 -0.6419,2.100587 -0.4278,0.622395 -1.2253,1.1280934 -2.3923,1.5170895 -1.167,0.3889984 -2.6646,0.7001963 -4.4929,0.9335935 -1.8283,0.2333995 -4.1817,0.3500993 -7.0603,0.3500993 -2.8008,0 -5.1348,-0.1166998 -7.002,-0.3500993 -1.8671,-0.2333972 -3.3648,-0.5445951 -4.4929,-0.9335935 -1.1281,-0.3889961 -1.9061,-0.8946945 -2.334,-1.5170895 -0.4279,-0.622396 -0.6418,-1.322592 -0.6418,-2.100587 V -138.7554 c 0,-3.9677 1.0503,-7.0019 3.1509,-9.1025 2.1006,-2.1006 4.9013,-3.1509 8.4023,-3.1509 z m -248.45066,0 h 39.09423 c 3.96778,0 7.23536,0.0778 9.80274,0.2334 2.56738,0.1556 4.90137,0.3501 7.00195,0.5835 6.06836,0.8558 11.53377,2.334 16.39624,4.4346 4.8625,2.1006 8.9858,4.843 12.3701,8.2273 3.3843,3.3842 5.9711,7.3909 7.7605,12.02 1.7894,4.6291 2.6841,9.9389 2.6841,15.9294 0,5.057 -0.6418,9.66661 -1.9255,13.82889 -1.2837,4.16228 -3.1704,7.8772 -5.6599,11.14478 -2.4896,3.26757 -5.5627,6.10725 -9.2193,8.51904 -3.6566,2.41179 -7.81884,4.35677 -12.4868,5.83496 2.25618,1.08919 4.37622,2.41179 6.3601,3.96777 1.98389,1.55599 3.8511,3.44263 5.6016,5.65992 1.7505,2.21728 3.4037,4.74576 4.9597,7.58545 1.556,2.83968 3.0731,6.04891 4.5513,9.62768 l 12.7202,29.7583 c 1.167,2.95638 1.945,5.115317 2.334,6.476808 0.389,1.361491 0.5835,2.431234 0.5835,3.209229 0,0.855795 -0.1557,1.575438 -0.4668,2.158935 -0.3112,0.583496 -1.0503,1.0697426 -2.2173,1.458741 -1.167,0.38899615 -2.8786,0.6612948 -5.1348,0.8168937 -2.2562,0.1555989 -5.3293,0.2333996 -9.2192,0.2333996 -3.2676,0 -5.8739,-0.0778007 -7.8189,-0.2333996 -1.945,-0.1555989 -3.4815,-0.44734712 -4.60961,-0.8752447 -1.12809,-0.4278953 -1.92553,-0.972493 -2.39232,-1.633787 -0.46681,-0.661297 -0.8558,-1.458742 -1.167,-2.392335 L 81.92286,-38.16064 c -1.63379,-3.81218 -3.22868,-7.19645 -4.78467,-10.15284 -1.55598,-2.95638 -3.28703,-5.42651 -5.19311,-7.4104 -1.90609,-1.98388 -4.10393,-3.48153 -6.59351,-4.49292 -2.48959,-1.01139 -5.36816,-1.51709 -8.63574,-1.51709 h -9.56934 v 57.532717 c 0,0.777995 -0.25285,1.478191 -0.75854,2.100587 -0.5057,0.622395 -1.34204,1.1280934 -2.50903,1.5170895 -1.167,0.3889984 -2.72299,0.7001963 -4.66798,0.9335935 -1.94498,0.2333995 -4.43457,0.3500993 -7.46874,0.3500993 -2.95638,0 -5.42651,-0.1166998 -7.4104,-0.3500993 C 22.34791,0.1166998 20.77247,-0.1944981 19.60548,-0.5834965 18.43849,-0.9724926 17.62159,-1.478191 17.15479,-2.100586 16.688,-2.722982 16.4546,-3.423178 16.4546,-4.201173 V -141.3228 c 0,-3.4231 0.87525,-5.8933 2.62573,-7.4104 1.75049,-1.517 3.90942,-2.2756 6.47681,-2.2756 z m 582.30176,-0.7002 c 3.0342,0 5.5237,0.1167 7.4687,0.3501 1.945,0.2334 3.501,0.5446 4.668,0.9336 1.167,0.389 2.0034,0.8947 2.509,1.5171 0.5057,0.6224 0.7586,1.3226 0.7586,2.1006 V -4.201173 c 0,0.777995 -0.2529,1.478191 -0.7586,2.100587 -0.5056,0.622395 -1.342,1.1280934 -2.509,1.5170895 -1.167,0.3889984 -2.723,0.7001963 -4.668,0.9335935 -1.945,0.2333995 -4.4345,0.3500993 -7.4687,0.3500993 -2.9564,0 -5.4265,-0.1166998 -7.4104,-0.3500993 -1.9839,-0.2333972 -3.5593,-0.5445951 -4.7263,-0.9335935 -1.167,-0.3889961 -2.0034,-0.8946945 -2.5091,-1.5170895 -0.5056,-0.622396 -0.7585,-1.322592 -0.7585,-2.100587 V -146.8076 c 0,-0.778 0.2529,-1.4782 0.7585,-2.1006 0.5057,-0.6224 1.3615,-1.1281 2.5674,-1.5171 1.2059,-0.389 2.7813,-0.7002 4.7263,-0.9336 1.945,-0.2334 4.3957,-0.3501 7.3521,-0.3501 z"
               id="path30"
               style="fill:none;stroke:#595959;stroke-width:1;stroke-linecap:butt;stroke-linejoin:round;stroke-miterlimit:10;stroke-dasharray:none;stroke-opacity:1"
               inkscape:connector-curvature="0" /></g><path
             d="m 110,158 h 28 v -28 h -28 z"
             id="path32"
             style="fill:#59646d;fill-opacity:1;fill-rule:nonzero;stroke:none"
             inkscape:connector-curvature="0" /><path
             d="m 142,127 h 28 V 99 h -28 z"
             id="path34"
             style="fill:#595959;fill-opacity:1;fill-rule:nonzero;stroke:none"
             inkscape:connector-curvature="0" /><path
             d="m 78,158 h 28 V 130 H 78 Z"
             id="path36"
             style="fill:#587a96;fill-opacity:1;fill-rule:nonzero;stroke:none"
             inkscape:connector-curvature="0" /><path
             d="M 46,158 H 74 V 130 H 46 Z"
             id="path38"
             style="fill:#588cb6;fill-opacity:1;fill-rule:nonzero;stroke:none"
             inkscape:connector-curvature="0" /><path
             d="M 14,127 H 41 V 99 H 14 Z"
             id="path40"
             style="fill:#5b9bd5;fill-opacity:1;fill-rule:nonzero;stroke:none"
             inkscape:connector-curvature="0" /><path
             d="M 14,65 H 41 V 37 H 14 Z"
             id="path42"
             style="fill:#595959;fill-opacity:1;fill-rule:nonzero;stroke:none"
             inkscape:connector-curvature="0" /><path
             d="M 46,34 H 74 V 6 H 46 Z"
             id="path44"
             style="fill:#59646d;fill-opacity:1;fill-rule:nonzero;stroke:none"
             inkscape:connector-curvature="0" /><path
             d="m 78,34 h 28 V 6 H 78 Z"
             id="path46"
             style="fill:#587a96;fill-opacity:1;fill-rule:nonzero;stroke:none"
             inkscape:connector-curvature="0" /><path
             d="m 110,34 h 28 V 6 h -28 z"
             id="path48"
             style="fill:#588cb6;fill-opacity:1;fill-rule:nonzero;stroke:none"
             inkscape:connector-curvature="0" /><path
             d="m 142,65 h 28 V 37 h -28 z"
             id="path50"
             style="fill:#5b9bd5;fill-opacity:1;fill-rule:nonzero;stroke:none"
             inkscape:connector-curvature="0" /><path
             d="m 142,158 c 15.464,0 28,-12.536 28,-28 h -28 z"
             id="path52"
             style="fill:#595959;fill-opacity:1;fill-rule:nonzero;stroke:none"
             inkscape:connector-curvature="0" /><path
             d="m 14,130 c 0,15.464 12.31218,28 27.50003,28 l -6e-5,-28 z"
             id="path54"
             style="fill:#5b9bd5;fill-opacity:1;fill-rule:nonzero;stroke:none"
             inkscape:connector-curvature="0" /><path
             d="M 41.49997,5.999998 C 26.31212,5.999998 13.99994,18.53603 13.99994,34 h 27.50003 z"
             id="path56"
             style="fill:#595959;fill-opacity:1;fill-rule:nonzero;stroke:none"
             inkscape:connector-curvature="0" /><path
             d="M 170,34 C 170,18.53603 157.464,5.999998 142,5.999998 V 34 Z"
             id="path58"
             style="fill:#5b9bd5;fill-opacity:1;fill-rule:nonzero;stroke:none"
             inkscape:connector-curvature="0" /><path
             d="M 184,72.67797 H 170 V 69 h -28 v 3.67797 H 128 L 156,90 Z"
             id="path60"
             style="fill:#5b9bd5;fill-opacity:1;fill-rule:nonzero;stroke:none"
             inkscape:connector-curvature="0" /><path
             d="M 0,91.32203 H 14 V 95 H 42 V 91.32203 H 56 L 28,74 Z"
             id="path62"
             style="fill:#5b9bd5;fill-opacity:1;fill-rule:nonzero;stroke:none"
             inkscape:connector-curvature="0" /><path
             d="m 66,96.5 c 0,6.9036 4.25329,12.5 9.5,12.5 5.24671,0 9.5,-5.5964 9.5,-12.5 C 85,89.59644 80.74671,84 75.5,84 70.25329,84 66,89.59644 66,96.5 Z"
             id="path64"
             style="fill:#5b9bd5;fill-opacity:1;fill-rule:nonzero;stroke:none"
             inkscape:connector-curvature="0" /><path
             d="m 98,96.5 c 0,6.9036 4.4772,12.5 10,12.5 5.5228,0 10,-5.5964 10,-12.5 0,-6.90356 -4.4772,-12.5 -10,-12.5 -5.5228,0 -10,5.59644 -10,12.5 z"
             id="path66"
             style="fill:#5b9bd5;fill-opacity:1;fill-rule:nonzero;stroke:none"
             inkscape:connector-curvature="0" /><g
             transform="matrix(7.874016e-5,0,0,-7.874016e-5,70.5,96.5)"
             id="g68"><path
               d="M 550580.5,330912.5 C 513428.1,473873.9 361898.4,561018 212129.3,525554.3 111769.2,501790.1 33364.7,427060.8 8319.393,331298.1"
               id="path70"
               style="fill:none;stroke:#5b9bd5;stroke-width:88900;stroke-linecap:round;stroke-linejoin:miter;stroke-miterlimit:8;stroke-dasharray:none;stroke-opacity:1"
               inkscape:connector-curvature="0" /></g></g></g></g></g><g
     inkscape:groupmode="layer"
     id="layer3"
     inkscape:label="light"><g
       id="g879"
       transform="matrix(1.25,0,0,-1.25,0,212.5)" /><path
       inkscape:connector-curvature="0"
       d="M 0,0 H 1045 V 212.5 H 0 Z"
       id="path881"
       style="fill:#ffffff;fill-opacity:0;fill-rule:nonzero;stroke:none;stroke-width:1.25" /><path
       inkscape:connector-curvature="0"
       d="m 474.1925,90.488687 c -4.66788,0 -8.72813,0.875238 -12.18038,2.625725 -3.45237,1.750488 -6.32125,4.108788 -8.60662,7.074888 -2.28538,2.9661 -4.03575,6.46707 -5.25137,10.50294 -1.21563,4.03585 -1.92076,8.33913 -2.11526,12.90985 h 54.84863 c 0.29175,-10.30844 -1.77475,-18.40445 -6.19963,-24.288028 -4.42487,-5.883587 -11.25662,-8.825375 -20.49537,-8.825375 z m 0.87525,-25.965562 c 10.892,0 20.20362,1.604625 27.935,4.813875 7.73125,3.209125 14.07675,7.658375 19.0365,13.347375 4.95975,5.689138 8.60662,12.423663 10.94062,20.203605 2.33388,7.77993 3.50088,16.24063 3.50088,25.38207 v 5.83496 c 0,4.47348 -0.99675,7.77995 -2.99038,9.91944 -1.99362,2.13947 -4.74087,3.20922 -8.24187,3.20922 h -79.20963 c 0,5.54322 0.6565,10.57587 1.96938,15.09797 1.31275,4.5221 3.40362,8.36343 6.2725,11.52405 2.86887,3.16061 6.56437,5.56752 11.08637,7.22076 4.52213,1.65324 9.94388,2.47986 16.265,2.47986 6.4185,0 12.059,-0.46193 16.92138,-1.38581 4.8625,-0.92386 9.0685,-1.94498 12.61812,-3.06335 3.54963,-1.11836 6.49138,-2.13949 8.82538,-3.06335 2.334,-0.92386 4.23037,-1.38581 5.68912,-1.38581 0.87525,0 1.60463,0.1702 2.18813,0.51056 0.5835,0.34037 1.06975,0.94819 1.45875,1.82342 0.389,0.87526 0.65637,2.11518 0.80225,3.71979 0.14587,1.60461 0.21875,3.62254 0.21875,6.05378 0,2.13948 -0.0485,3.96291 -0.14588,5.47027 -0.0971,1.50736 -0.24312,2.79591 -0.4375,3.86566 -0.1945,1.06974 -0.48625,1.9693 -0.87525,2.69867 -0.389,0.72937 -0.89962,1.43443 -1.53175,2.11518 -0.63212,0.68074 -2.35825,1.60461 -5.1785,2.7716 -2.82025,1.167 -6.4185,2.30968 -10.79462,3.42804 -4.37625,1.11837 -9.38463,2.09086 -15.02512,2.91748 -5.64038,0.82662 -11.66988,1.23993 -18.08838,1.23993 -11.57263,0 -21.71088,-1.45874 -30.41463,-4.37622 -8.70387,-2.91748 -15.97324,-7.34233 -21.80825,-13.27454 -5.83487,-5.93221 -10.18687,-13.42041 -13.05575,-22.4646 -2.86874,-9.04419 -4.30325,-19.64436 -4.30325,-31.80054 0,-11.57266 1.50738,-22.00264 4.52213,-31.28997 3.01475,-9.287313 7.39087,-17.164513 13.12863,-23.631625 5.73774,-6.467 12.71537,-11.4025 20.933,-14.806125 8.2175,-3.40375 17.48049,-5.105625 27.78887,-5.105625 z M 860.5835,48.76875 v 64.03866 h 17.21325 c 6.12662,0 11.25662,-0.82662 15.38962,-2.47986 4.13313,-1.65324 7.5125,-3.96291 10.13825,-6.92901 2.62575,-2.9661 4.61938,-6.515715 5.98088,-10.648815 1.3615,-4.133088 2.04225,-8.63085 2.04225,-13.49335 0,-6.613 -1.167,-12.058875 -3.501,-16.337875 -2.334,-4.279 -5.20288,-7.439625 -8.60663,-9.481875 C 895.8365,51.3945 892.2625,50.105875 888.51837,49.571 884.77425,49.036125 880.90862,48.76875 876.9215,48.76875 Z m -565,-0.29175 v 53.53573 h 19.54712 c 5.44601,0 10.21126,-0.65643 14.29575,-1.9693 4.08438,-1.312868 7.48813,-3.160605 10.21113,-5.543217 2.723,-2.3826 4.76525,-5.227138 6.12675,-8.533588 1.3615,-3.3065 2.04225,-7.002 2.04225,-11.0865 0,-6.223875 -1.41012,-11.475375 -4.23037,-15.754375 -2.82025,-4.279 -7.43963,-7.293625 -13.858,-9.044125 -1.945,-0.48625 -4.1575,-0.87525 -6.63725,-1.167 C 320.601,48.622875 317.17288,48.477 312.79675,48.477 Z m 539.618,-29.32075 h 44.4915 c 4.4735,0 8.72812,0.17025 12.764,0.510625 4.03588,0.340375 8.874,1.06975 14.5145,2.188125 5.6405,1.11825 11.35387,3.184875 17.14025,6.199625 5.78625,3.01475 10.72163,6.83175 14.80613,11.451125 4.0845,4.61925 7.1965,10.016625 9.336,16.192 2.13949,6.17525 3.20925,13.104375 3.20925,20.787 0,10.60025 -1.65325,19.984762 -4.95976,28.15371 -3.3065,8.16895 -8.12037,15.04934 -14.44149,20.64118 -6.32125,5.59183 -14.07688,9.8465 -23.267,12.76397 -9.19,2.91749 -20.009,4.37623 -32.45688,4.37623 h -15.7545 v 60.24596 c 0,0.9725 -0.316,1.84774 -0.94812,2.62574 -0.63213,0.77799 -1.6775,1.41011 -3.13625,1.89636 -1.45876,0.48625 -3.40375,0.87524 -5.835,1.16699 -2.43126,0.29175 -5.54326,0.43763 -9.33601,0.43763 -3.69537,0 -6.78312,-0.14588 -9.26299,-0.43763 -2.47975,-0.29175 -4.44913,-0.68074 -5.90788,-1.16699 -1.45875,-0.48625 -2.47988,-1.11837 -3.06337,-1.89636 -0.58351,-0.778 -0.87526,-1.65324 -0.87526,-2.62574 V 32.8685 c 0,-4.57075 1.19138,-7.998875 3.57401,-10.284125 2.38262,-2.285375 5.51887,-3.428125 9.40887,-3.428125 z m -256.04125,0 h 25.09025 c 4.4735,0 8.31488,0.36475 11.52413,1.094125 3.20924,0.729375 5.98075,1.945 8.31475,3.646875 2.334,1.70175 4.279,3.9385 5.835,6.710125 1.55599,2.771625 2.9175,6.199625 4.08449,10.284125 l 40.84476,112.46889 h 0.5835 L 717.7405,41.18325 c 1.26425,-4.0845 2.65013,-7.53675 4.1575,-10.357 1.50738,-2.82025 3.25775,-5.105625 5.25138,-6.856125 1.99362,-1.7505 4.352,-2.990375 7.07487,-3.71975 2.723,-0.729375 5.88363,-1.094125 9.48188,-1.094125 h 25.81975 c 2.62562,0 4.88675,0.340375 6.78312,1.021125 1.89638,0.68075 3.45225,1.677625 4.66788,2.9905 1.21562,1.31275 2.1395,2.917375 2.77162,4.81375 0.63213,1.896375 0.94825,4.06025 0.94825,6.491375 v 168.1928 c 0,0.9725 -0.2675,1.84774 -0.80237,2.62574 -0.53488,0.77799 -1.50738,1.41011 -2.9175,1.89636 -1.41,0.48625 -3.28213,0.87524 -5.61613,1.16699 -2.334,0.29175 -5.30012,0.43763 -8.89825,0.43763 -3.501,0 -6.4185,-0.14588 -8.7525,-0.43763 -2.334,-0.29175 -4.18175,-0.68074 -5.54325,-1.16699 -1.3615,-0.48625 -2.33387,-1.11837 -2.91737,-1.89636 -0.5835,-0.778 -0.87525,-1.65324 -0.87525,-2.62574 V 49.0605 h -0.29175 l -54.70275,153.45943 c -0.38913,1.26424 -1.02113,2.30967 -1.89638,3.13629 -0.87525,0.82662 -2.06662,1.48306 -3.574,1.9693 -1.50725,0.48625 -3.428,0.80231 -5.762,0.94818 -2.334,0.14588 -5.15412,0.21882 -8.46062,0.21882 -3.30651,0 -6.12675,-0.12157 -8.46076,-0.36469 -2.33399,-0.24313 -4.25462,-0.63212 -5.76199,-1.16699 -1.50738,-0.53487 -2.69863,-1.19131 -3.57388,-1.9693 -0.87525,-0.778 -1.45875,-1.70187 -1.7505,-2.77161 L 601.33312,49.0605 h -0.29174 v 153.6053 c 0,0.9725 -0.26751,1.84774 -0.80238,2.62574 -0.53488,0.77799 -1.53163,1.41011 -2.99038,1.89636 -1.45874,0.48625 -3.33087,0.87524 -5.61612,1.16699 -2.28538,0.29175 -5.22725,0.43763 -8.82537,0.43763 -3.501,0 -6.4185,-0.14588 -8.75251,-0.43763 -2.334,-0.29175 -4.206,-0.68074 -5.61612,-1.16699 -1.41013,-0.48625 -2.38262,-1.11837 -2.9175,-1.89636 -0.53488,-0.778 -0.80238,-1.65324 -0.80238,-2.62574 V 34.473 c 0,-4.959625 1.31288,-8.752375 3.93863,-11.378125 2.62575,-2.62575 6.12675,-3.938625 10.503,-3.938625 z m -310.56338,0 h 48.86775 c 4.95975,0 9.04426,0.09725 12.25351,0.29175 3.20925,0.1945 6.12662,0.437625 8.75237,0.729375 7.5855,1.06975 14.41725,2.9175 20.49538,5.54325 6.078,2.62575 11.23224,6.05375 15.46262,10.284125 4.23037,4.230375 7.46387,9.238625 9.70062,15.025 2.23675,5.786375 3.35513,12.423625 3.35513,19.911875 0,6.321125 -0.80238,12.083125 -2.407,17.286012 -1.60463,5.202838 -3.96288,9.846488 -7.07487,13.930963 -3.11201,4.08447 -6.95338,7.63407 -11.524,10.64881 -4.57076,3.01473 -9.77363,5.44595 -15.60851,7.2937 2.82013,1.36148 5.47025,3.01474 7.95013,4.95971 2.47975,1.94498 4.81375,4.30329 7.00187,7.07489 2.18813,2.77161 4.25475,5.93221 6.19963,9.48181 1.945,3.54962 3.84137,7.56114 5.68912,12.03462 l 15.90025,37.19787 c 1.45875,3.69548 2.43125,6.39414 2.9175,8.096 0.48625,1.70187 0.72938,3.03905 0.72938,4.01154 0,1.06975 -0.1945,1.9693 -0.5835,2.69867 -0.389,0.72937 -1.31288,1.33718 -2.77163,1.82343 -1.45874,0.48624 -3.59812,0.82662 -6.41837,1.02112 -2.82025,0.19449 -6.66162,0.29175 -11.52413,0.29175 -4.08449,0 -7.34225,-0.0973 -9.7735,-0.29175 -2.43124,-0.1945 -4.35187,-0.55919 -5.762,-1.09406 -1.41012,-0.53487 -2.407,-1.21562 -2.9905,-2.04223 -0.58349,-0.82663 -1.06975,-1.82343 -1.45875,-2.99042 L 339.054,160.21646 c -2.04225,-4.76521 -4.03588,-8.99556 -5.98088,-12.69104 -1.94487,-3.69547 -4.10874,-6.78313 -6.49137,-9.263 -2.3825,-2.47986 -5.12988,-4.35191 -8.24188,-5.61615 -3.112,-1.26423 -6.71012,-1.89636 -10.79462,-1.89636 H 295.5835 v 71.91589 c 0,0.9725 -0.316,1.84774 -0.94813,2.62574 -0.63212,0.77799 -1.6775,1.41011 -3.13624,1.89636 -1.45875,0.48625 -3.40376,0.87524 -5.835,1.16699 -2.43125,0.29175 -5.54326,0.43763 -9.33588,0.43763 -3.6955,0 -6.78325,-0.14588 -9.263,-0.43763 -2.47988,-0.29175 -4.44925,-0.68074 -5.908,-1.16699 -1.45875,-0.48625 -2.47988,-1.11837 -3.06338,-1.89636 -0.58337,-0.778 -0.87512,-1.65324 -0.87512,-2.62574 V 31.263875 c 0,-4.279 1.094,-7.366625 3.28212,-9.263 2.18813,-1.896375 4.88675,-2.844625 8.096,-2.844625 z M 996.474,18.281 c 3.7928,0 6.9048,0.145875 9.336,0.437625 2.4313,0.29175 4.3762,0.68075 5.835,1.167 1.4588,0.48625 2.5041,1.118375 3.1362,1.896375 0.6322,0.778 0.9482,1.65325 0.9482,2.62575 V 202.6658 c 0,0.9725 -0.316,1.84774 -0.9482,2.62574 -0.6321,0.77799 -1.6774,1.41011 -3.1362,1.89636 -1.4588,0.48625 -3.4037,0.87524 -5.835,1.16699 -2.4313,0.29175 -5.5433,0.43763 -9.336,0.43763 -3.69538,0 -6.78313,-0.14588 -9.263,-0.43763 -2.47975,-0.29175 -4.44912,-0.68074 -5.90787,-1.16699 -1.45875,-0.48625 -2.50413,-1.11837 -3.13626,-1.89636 -0.63212,-0.778 -0.94825,-1.65324 -0.94825,-2.62574 V 24.40775 c 0,-0.9725 0.31613,-1.84775 0.94825,-2.62575 0.63213,-0.778 1.70188,-1.410125 3.20925,-1.896375 1.50725,-0.48625 3.47663,-0.87525 5.90788,-1.167 2.43125,-0.29175 5.49463,-0.437625 9.19,-0.437625 z"
       id="path883"
       style="fill:#595959;fill-opacity:1;fill-rule:nonzero;stroke:none;stroke-width:1.25" /><path
       style="fill:#ffffff;stroke:#ffffff;stroke-width:1.25;stroke-linecap:butt;stroke-linejoin:round;stroke-miterlimit:10;stroke-dasharray:none;stroke-opacity:1"
       id="path885"
       d="m 474.19263,90.488683 c -4.668,0 -8.72813,0.875237 -12.18051,2.625724 -3.45237,1.7505 -6.32125,4.1088 -8.6065,7.074903 -2.28537,2.9661 -4.03587,6.46707 -5.25149,10.50292 -1.21563,4.03585 -1.92063,8.33914 -2.11513,12.90985 h 54.84862 c 0.29175,-10.30844 -1.77487,-18.40444 -6.19975,-24.288023 -4.42475,-5.883575 -11.25662,-8.825375 -20.49524,-8.825374 z m 0.87524,-25.965538 c 10.89188,0 20.20351,1.604625 27.93488,4.81375 7.73138,3.20925 14.07688,7.6585 19.03662,13.3475 4.95963,5.689112 8.60651,12.423638 10.9405,20.203575 2.334,7.77995 3.501,16.24064 3.501,25.38209 v 5.83496 c 0,4.47346 -0.99687,7.77995 -2.9905,9.91943 -1.99362,2.13948 -4.74087,3.20922 -8.24187,3.20922 H 446.039 c 0,5.54322 0.65638,10.57588 1.96925,15.09796 1.31287,4.5221 3.40375,8.36345 6.2725,11.52405 2.86888,3.16062 6.56437,5.56753 11.0865,7.22076 4.52212,1.65324 9.94375,2.47987 16.265,2.47987 6.41837,0 12.05887,-0.46194 16.92137,-1.3858 4.86238,-0.92388 9.0685,-1.94499 12.61813,-3.06337 3.5495,-1.11836 6.49138,-2.13948 8.82537,-3.06335 2.33388,-0.92386 4.23026,-1.3858 5.68901,-1.3858 0.87524,0 1.60462,0.17019 2.18812,0.51057 0.5835,0.34036 1.06975,0.94817 1.45875,1.82342 0.389,0.87524 0.6565,2.11516 0.80225,3.71979 0.14587,1.60461 0.21887,3.62254 0.21887,6.05376 0,2.13949 -0.0486,3.96291 -0.14587,5.47028 -0.0973,1.50737 -0.24313,2.79592 -0.43763,3.86566 -0.1945,1.06975 -0.48625,1.9693 -0.87525,2.69867 -0.389,0.72937 -0.8995,1.43443 -1.53162,2.11518 -0.63213,0.68074 -2.35838,1.60461 -5.17863,2.7716 -2.82012,1.167 -6.41837,2.30967 -10.79462,3.42804 -4.37625,1.11837 -9.38463,2.09086 -15.025,2.91748 -5.6405,0.82662 -11.66988,1.23993 -18.08838,1.23993 -11.57275,0 -21.711,-1.45874 -30.41475,-4.37622 -8.70375,-2.91748 -15.97325,-7.34232 -21.80812,-13.27453 -5.835,-5.93221 -10.18688,-13.42041 -13.05575,-22.4646 -2.86888,-9.04419 -4.30325,-19.64438 -4.30325,-31.80054 0,-11.57267 1.50725,-22.00266 4.522,-31.28999 3.01475,-9.287308 7.391,-17.164508 13.12875,-23.631583 5.73762,-6.467012 12.71525,-11.402512 20.93287,-14.806262 8.21763,-3.403625 17.48063,-5.1055 27.789,-5.1055 z M 860.58362,48.76877 v 64.03864 h 17.21313 c 6.12675,0 11.25663,-0.82663 15.38975,-2.47986 4.133,-1.65323 7.5125,-3.96292 10.13825,-6.92902 2.62562,-2.9661 4.61937,-6.51571 5.98075,-10.648797 1.3615,-4.1331 2.04225,-8.630888 2.04225,-13.493338 0,-6.613 -1.167,-12.059 -3.501,-16.337875 -2.334,-4.279 -5.20288,-7.439625 -8.6065,-9.481875 -3.40375,-2.04225 -6.97763,-3.33075 -10.72175,-3.865625 -3.74413,-0.534875 -7.60975,-0.80225 -11.597,-0.80225 z M 295.58361,48.47702 v 53.53571 h 19.54713 c 5.44596,0 10.21117,-0.65643 14.29565,-1.9693 4.08447,-1.312872 7.4882,-3.16061 10.21119,-5.54321 2.72298,-2.3826 4.76522,-5.22715 6.12669,-8.533637 1.36151,-3.306438 2.04224,-7.001938 2.04224,-11.086438 0,-6.224 -1.41012,-11.475375 -4.23035,-15.754375 -2.82021,-4.279 -7.43957,-7.29375 -13.85802,-9.04425 -1.94499,-0.48625 -4.1574,-0.87525 -6.63728,-1.166875 -2.47985,-0.29175 -5.90789,-0.437625 -10.28411,-0.437625 z M 835.2015,19.15627 h 44.49162 c 4.4735,0 8.72813,0.170125 12.764,0.510625 4.03588,0.340375 8.87388,1.06975 14.51438,2.188 5.6405,1.118375 11.35387,3.185 17.14025,6.19975 5.78637,3.014625 10.72175,6.83175 14.80625,11.451125 4.08438,4.61925 7.19637,10.016625 9.33587,16.192 2.1395,6.17525 3.20925,13.10425 3.20925,20.787 0,10.600188 -1.65324,19.98475 -4.95975,28.15369 -3.3065,8.16895 -8.12037,15.04935 -14.4415,20.64117 -6.32112,5.59184 -14.07687,9.8465 -23.26687,12.76398 -9.19013,2.91748 -20.00912,4.37622 -32.457,4.37622 h -15.75438 v 60.24597 c 0,0.9725 -0.31612,1.84774 -0.94825,2.62574 -0.63212,0.77799 -1.6775,1.41011 -3.13625,1.89636 -1.45874,0.48625 -3.40375,0.87524 -5.835,1.16699 -2.43112,0.29175 -5.54312,0.43763 -9.33587,0.43763 -3.6955,0 -6.78313,-0.14588 -9.263,-0.43763 -2.47988,-0.29175 -4.44913,-0.68074 -5.90788,-1.16699 -1.45875,-0.48625 -2.47987,-1.11837 -3.06337,-1.89636 -0.5835,-0.778 -0.87525,-1.65324 -0.87525,-2.62574 V 32.868395 c 0,-4.570625 1.19125,-7.99875 3.57388,-10.284125 2.38262,-2.28525 5.519,-3.428 9.40887,-3.428 z m -256.04125,0 h 25.09037 c 4.47338,0 8.31475,0.36475 11.524,1.094125 3.20925,0.729375 5.98088,1.945 8.31488,3.64675 2.334,1.701875 4.27887,3.938625 5.83487,6.71025 1.55613,2.771625 2.9175,6.199625 4.0845,10.284125 l 40.84475,112.46886 h 0.5835 l 42.3035,-112.17711 c 1.26425,-4.0845 2.65,-7.536875 4.15738,-10.357125 1.50737,-2.820125 3.25787,-5.1055 5.2515,-6.856 1.9935,-1.7505 4.35187,-2.990375 7.07487,-3.71975 2.723,-0.729375 5.88363,-1.094125 9.48175,-1.094125 h 25.81975 c 2.62575,0 4.88675,0.340375 6.78313,1.021125 1.89637,0.68075 3.45237,1.6775 4.668,2.990375 1.21562,1.312875 2.1395,2.9175 2.77162,4.813875 0.63213,1.896375 0.94813,4.06025 0.94813,6.491375 V 202.6658 c 0,0.9725 -0.26738,1.84774 -0.80225,2.62574 -0.53488,0.77799 -1.50738,1.41011 -2.9175,1.89636 -1.41013,0.48625 -3.28225,0.87524 -5.61613,1.16699 -2.334,0.29175 -5.30012,0.43763 -8.89837,0.43763 -3.501,0 -6.4185,-0.14588 -8.75238,-0.43763 -2.334,-0.29175 -4.18175,-0.68074 -5.54325,-1.16699 -1.3615,-0.48625 -2.334,-1.11837 -2.9175,-1.89636 -0.5835,-0.778 -0.87525,-1.65324 -0.87525,-2.62574 V 49.06052 h -0.29175 l -54.70274,153.45941 c -0.389,1.26424 -1.02113,2.30967 -1.89638,3.13629 -0.87525,0.82662 -2.0665,1.48306 -3.57388,1.9693 -1.50737,0.48625 -3.42812,0.80231 -5.762,0.94818 -2.334,0.14588 -5.15425,0.21882 -8.46075,0.21882 -3.30649,0 -6.12675,-0.12157 -8.46062,-0.36469 -2.334,-0.24313 -4.25475,-0.63212 -5.76212,-1.16699 -1.50726,-0.53487 -2.69863,-1.19131 -3.57388,-1.9693 -0.87525,-0.778 -1.45875,-1.70187 -1.7505,-2.77161 L 601.33312,49.06052 h -0.29174 V 202.6658 c 0,0.9725 -0.26751,1.84774 -0.80238,2.62574 -0.53475,0.77799 -1.53163,1.41011 -2.99038,1.89636 -1.45874,0.48625 -3.33075,0.87524 -5.61612,1.16699 -2.28538,0.29175 -5.22713,0.43763 -8.82538,0.43763 -3.501,0 -6.41849,-0.14588 -8.7525,-0.43763 -2.33387,-0.29175 -4.206,-0.68074 -5.61612,-1.16699 -1.41013,-0.48625 -2.38262,-1.11837 -2.9175,-1.89636 -0.53488,-0.778 -0.80225,-1.65324 -0.80225,-2.62574 V 34.47302 c 0,-4.959625 1.31287,-8.752375 3.93862,-11.378125 2.62575,-2.62575 6.12663,-3.938625 10.50288,-3.938625 z m -310.56333,0 h 48.86779 c 4.95973,0 9.0442,0.09725 12.25343,0.29175 3.20922,0.1945 6.12671,0.437625 8.75243,0.729375 7.58545,1.06975 14.41722,2.9175 20.4953,5.54325 6.07813,2.62575 11.23225,6.05375 15.46263,10.284125 4.23037,4.23025 7.46388,9.238625 9.70062,15.025 2.23675,5.786375 3.35513,12.423625 3.35513,19.91175 0,6.32125 -0.80225,12.083262 -2.40688,17.286112 -1.60462,5.20285 -3.963,9.8465 -7.07487,13.930978 -3.112,4.08446 -6.95338,7.63406 -11.52412,10.6488 -4.57076,3.01473 -9.77355,5.44596 -15.60851,7.2937 2.82023,1.36148 5.47028,3.01473 7.95013,4.95971 2.47986,1.94499 4.81387,4.30329 7.002,7.0749 2.18813,2.7716 4.25463,5.9322 6.19962,9.48181 1.94501,3.5496 3.84138,7.56114 5.68913,12.0346 l 15.90025,37.19788 c 1.45875,3.69547 2.43125,6.39414 2.9175,8.09601 0.48625,1.70186 0.72938,3.03904 0.72938,4.01153 0,1.06975 -0.19463,1.9693 -0.58351,2.69867 -0.38899,0.72937 -1.31287,1.33718 -2.77162,1.82343 -1.45875,0.48624 -3.59825,0.82662 -6.4185,1.02112 -2.82025,0.19449 -6.66162,0.29175 -11.524,0.29175 -4.0845,0 -7.34237,-0.0973 -9.77362,-0.29175 -2.43125,-0.1945 -4.35188,-0.55919 -5.76202,-1.09406 -1.41011,-0.53487 -2.40691,-1.21562 -2.9904,-2.04223 -0.58351,-0.82663 -1.06975,-1.82343 -1.45875,-2.99042 l -16.92139,-42.15759 c -2.04223,-4.76523 -4.03584,-8.99556 -5.98083,-12.69105 -1.94498,-3.69548 -4.10879,-6.78314 -6.49139,-9.263 -2.38261,-2.47985 -5.12991,-4.35191 -8.24189,-5.61615 -3.11198,-1.26424 -6.7102,-1.89636 -10.79467,-1.89636 h -11.96168 v 71.91589 c 0,0.9725 -0.31606,1.84774 -0.94817,2.62574 -0.63213,0.77799 -1.67755,1.41011 -3.13629,1.89636 -1.45875,0.48625 -3.40374,0.87524 -5.83498,1.16699 -2.43122,0.29175 -5.54321,0.43763 -9.33592,0.43763 -3.69548,0 -6.78314,-0.14588 -9.263,-0.43763 -2.47986,-0.29175 -4.44916,-0.68074 -5.9079,-1.16699 -1.45874,-0.48625 -2.47986,-1.11837 -3.06336,-1.89636 -0.58349,-0.778 -0.87524,-1.65324 -0.87524,-2.62574 V 31.26377 c 0,-4.278875 1.09406,-7.366625 3.28216,-9.263 2.18812,-1.89625 4.88678,-2.8445 8.09601,-2.8445 z m 727.8772,-0.87525 c 3.79278,0 6.90458,0.145875 9.33588,0.437625 2.4313,0.29175 4.3762,0.68075 5.835,1.167 1.4587,0.48625 2.5042,1.118375 3.1362,1.896375 0.6322,0.778 0.9483,1.65325 0.9483,2.62575 V 202.6658 c 0,0.9725 -0.3161,1.84774 -0.9483,2.62574 -0.632,0.77799 -1.6775,1.41011 -3.1362,1.89636 -1.4588,0.48625 -3.4037,0.87524 -5.835,1.16699 -2.4313,0.29175 -5.5431,0.43763 -9.33588,0.43763 -3.6955,0 -6.78312,-0.14588 -9.263,-0.43763 -2.47987,-0.29175 -4.44912,-0.68074 -5.90787,-1.16699 -1.45875,-0.48625 -2.50425,-1.11837 -3.13638,-1.89636 -0.632,-0.778 -0.94812,-1.65324 -0.94812,-2.62574 V 24.40777 c 0,-0.9725 0.31612,-1.84775 0.94812,-2.62575 0.63213,-0.778 1.70188,-1.410125 3.20925,-1.896375 1.50738,-0.48625 3.47663,-0.87525 5.90788,-1.167 2.43125,-0.29175 5.49463,-0.437625 9.19012,-0.437625 z"
       inkscape:connector-curvature="0" /><path
       inkscape:connector-curvature="0"
       d="m 137.5,15 h 35 v 35 h -35 z"
       id="path889"
       style="fill:#d5e6f4;fill-opacity:1;fill-rule:nonzero;stroke:none;stroke-width:1.25" /><path
       inkscape:connector-curvature="0"
       d="m 177.5,53.75 h 35 v 35 h -35 z"
       id="path891"
       style="fill:#ffffff;fill-opacity:1;fill-rule:nonzero;stroke:none;stroke-width:1.25" /><path
       inkscape:connector-curvature="0"
       d="m 97.5,15 h 35 v 35 h -35 z"
       id="path893"
       style="fill:#aeceea;fill-opacity:1;fill-rule:nonzero;stroke:none;stroke-width:1.25" /><path
       inkscape:connector-curvature="0"
       d="m 57.5,15 h 35 v 35 h -35 z"
       id="path895"
       style="fill:#85b4e0;fill-opacity:1;fill-rule:nonzero;stroke:none;stroke-width:1.25" /><path
       inkscape:connector-curvature="0"
       d="m 17.5,53.75 h 33.75 v 35 H 17.5 Z"
       id="path897"
       style="fill:#5b9bd5;fill-opacity:1;fill-rule:nonzero;stroke:none;stroke-width:1.25" /><path
       inkscape:connector-curvature="0"
       d="m 17.5,131.25 h 33.75 v 35 H 17.5 Z"
       id="path899"
       style="fill:#ffffff;fill-opacity:1;fill-rule:nonzero;stroke:none;stroke-width:1.25" /><path
       inkscape:connector-curvature="0"
       d="m 57.5,170 h 35 v 35 h -35 z"
       id="path901"
       style="fill:#d5e6f4;fill-opacity:1;fill-rule:nonzero;stroke:none;stroke-width:1.25" /><path
       inkscape:connector-curvature="0"
       d="m 97.5,170 h 35 v 35 h -35 z"
       id="path903"
       style="fill:#aeceea;fill-opacity:1;fill-rule:nonzero;stroke:none;stroke-width:1.25" /><path
       inkscape:connector-curvature="0"
       d="m 137.5,170 h 35 v 35 h -35 z"
       id="path905"
       style="fill:#85b4e0;fill-opacity:1;fill-rule:nonzero;stroke:none;stroke-width:1.25" /><path
       inkscape:connector-curvature="0"
       d="m 177.5,131.25 h 35 v 35 h -35 z"
       id="path907"
       style="fill:#5b9bd5;fill-opacity:1;fill-rule:nonzero;stroke:none;stroke-width:1.25" /><path
       inkscape:connector-curvature="0"
       d="m 177.5,15 c 19.33,0 35,15.67 35,35 h -35 z"
       id="path909"
       style="fill:#ffffff;fill-opacity:1;fill-rule:nonzero;stroke:none;stroke-width:1.25" /><path
       inkscape:connector-curvature="0"
       d="m 17.5,50 c 0,-19.33 15.390225,-35 34.375037,-35 l -7.5e-5,35 z"
       id="path911"
       style="fill:#5b9bd5;fill-opacity:1;fill-rule:nonzero;stroke:none;stroke-width:1.25" /><path
       inkscape:connector-curvature="0"
       d="M 51.874962,205 C 32.89015,205 17.499925,189.32996 17.499925,170 h 34.375037 z"
       id="path913"
       style="fill:#ffffff;fill-opacity:1;fill-rule:nonzero;stroke:none;stroke-width:1.25" /><path
       inkscape:connector-curvature="0"
       d="m 212.5,170 c 0,19.32996 -15.67,35 -35,35 v -35 z"
       id="path915"
       style="fill:#5b9bd5;fill-opacity:1;fill-rule:nonzero;stroke:none;stroke-width:1.25" /><path
       inkscape:connector-curvature="0"
       d="M 230,121.65254 H 212.5 V 126.25 h -35 v -4.59746 H 160 L 195,100 Z"
       id="path917"
       style="fill:#5b9bd5;fill-opacity:1;fill-rule:nonzero;stroke:none;stroke-width:1.25" /><path
       inkscape:connector-curvature="0"
       d="M 0,98.347463 H 17.5 V 93.75 h 35 v 4.597463 H 70 L 35,120 Z"
       id="path919"
       style="fill:#5b9bd5;fill-opacity:1;fill-rule:nonzero;stroke:none;stroke-width:1.25" /><path
       inkscape:connector-curvature="0"
       d="m 82.5,91.875 c 0,-8.6295 5.316612,-15.625 11.875,-15.625 6.55839,0 11.875,6.9955 11.875,15.625 0,8.62945 -5.31661,15.625 -11.875,15.625 -6.558387,0 -11.875,-6.99555 -11.875,-15.625 z"
       id="path921"
       style="fill:#5b9bd5;fill-opacity:1;fill-rule:nonzero;stroke:none;stroke-width:1.25" /><path
       inkscape:connector-curvature="0"
       d="m 122.5,91.875 c 0,-8.6295 5.5965,-15.625 12.5,-15.625 6.9035,0 12.5,6.9955 12.5,15.625 0,8.62945 -5.5965,15.625 -12.5,15.625 -6.9035,0 -12.5,-6.99555 -12.5,-15.625 z"
       id="path923"
       style="fill:#5b9bd5;fill-opacity:1;fill-rule:nonzero;stroke:none;stroke-width:1.25" /><path
       style="fill:none;stroke:#5b9bd5;stroke-width:8.75;stroke-linecap:round;stroke-linejoin:miter;stroke-miterlimit:8;stroke-dasharray:none;stroke-opacity:1"
       id="path925"
       d="m 142.316,124.44513 c -3.65674,14.071 -18.57108,22.64818 -33.31213,19.15766 -9.877964,-2.339 -17.594943,-9.69425 -20.060032,-19.11971"
       inkscape:connector-curvature="0" /></g></svg>